<?xml version="1.0" encoding="utf-8"?>
<!-- Generator: Adobe Illustrator 16.0.0, SVG Export Plug-In . SVG Version: 6.00 Build 0)  -->
<!DOCTYPE svg PUBLIC "-//W3C//DTD SVG 1.1//EN" "http://www.w3.org/Graphics/SVG/1.1/DTD/svg11.dtd">
<svg version="1.1" id="Layer_1" xmlns="http://www.w3.org/2000/svg" xmlns:xlink="http://www.w3.org/1999/xlink" x="0px" y="0px"
	 width="102.549px" height="92px" viewBox="0 0 102.549 92" enable-background="new 0 0 102.549 92" xml:space="preserve">
<g>
	<path fill="#010101" d="M102.549,37.671v40.911c0,3.176-2.584,5.759-5.756,5.759H74.176v3.412c0,2.342-1.904,4.246-4.246,4.246
		H51.863c-2.341,0-4.246-1.904-4.246-4.246V71.547H24.234c-0.93,0-1.681-0.753-1.681-1.681s0.751-1.681,1.681-1.681h4.083
		l2.725-2.933H7.237C3.247,65.253,0,62.006,0,58.016V7.237C0,3.247,3.247,0,7.237,0h83.996c3.99,0,7.237,3.247,7.237,7.237v24.927
		C100.828,32.883,102.549,35.081,102.549,37.671z M99.188,78.583v-0.459H74.176v2.856h22.617
		C98.111,80.98,99.188,79.905,99.188,78.583z M99.188,74.762V41.492H60.539v10.376h9.391c2.342,0,4.246,1.904,4.246,4.246v18.648
		H99.188z M99.188,38.131v-0.459c0-1.322-1.076-2.397-2.395-2.397H62.937c-1.321,0-2.397,1.076-2.397,2.397v0.459H99.188z
		 M95.109,31.913V8.917H3.361V56.11h44.257c0.002-2.34,1.907-4.242,4.246-4.242h5.314V37.671c0-3.175,2.584-5.758,5.759-5.758
		H95.109z M3.749,5.557H94.72c-0.628-1.297-1.952-2.196-3.486-2.196H7.237C5.702,3.361,4.376,4.259,3.749,5.557z M70.814,87.753
		v-2.207H50.979v2.207c0,0.489,0.396,0.886,0.885,0.886H69.93C70.416,88.639,70.814,88.243,70.814,87.753z M70.814,82.186V61.684
		H50.979v20.502H70.814z M70.814,58.323v-2.209c0-0.488-0.398-0.885-0.885-0.885H51.863c-0.488,0-0.885,0.396-0.885,0.885v2.209
		H70.814z M47.618,68.186v-2.933H35.63l-2.727,2.933H47.618z M47.618,61.893V59.47H3.646c0.576,1.419,1.967,2.423,3.592,2.423
		H47.618z"/>
	<path fill="#DA8A6C" d="M99.188,78.124v0.459c0,1.322-1.076,2.397-2.395,2.397H74.176v-2.856H99.188z"/>
	<path fill="#FFFFFF" d="M99.188,41.492v33.271H74.176V56.114c0-2.342-1.904-4.246-4.246-4.246h-9.391V41.492H99.188z"/>
	<path fill="#DA8A6C" d="M99.188,37.671v0.459H60.539v-0.459c0-1.322,1.076-2.397,2.397-2.397h33.856
		C98.111,35.274,99.188,36.35,99.188,37.671z"/>
	<path fill="#FFFFFF" d="M95.109,8.917v22.996H62.937c-3.175,0-5.759,2.583-5.759,5.758v14.196h-5.314
		c-2.339,0-4.244,1.902-4.246,4.242H3.361V8.917H95.109z"/>
	<path fill="#7FCEEE" d="M94.72,5.557H3.749c0.627-1.297,1.954-2.196,3.489-2.196h83.996C92.768,3.361,94.092,4.259,94.72,5.557z"/>
	<path fill="#DA8A6C" d="M70.814,85.546v2.207c0,0.489-0.398,0.886-0.885,0.886H51.863c-0.488,0-0.885-0.396-0.885-0.886v-2.207
		H70.814z"/>
	<rect x="50.979" y="61.684" fill="#FFFFFF" width="19.836" height="20.502"/>
	<path fill="#DA8A6C" d="M70.814,56.114v2.209H50.979v-2.209c0-0.488,0.396-0.885,0.885-0.885H69.93
		C70.416,55.229,70.814,55.625,70.814,56.114z"/>
	<polygon fill="#7FCEEE" points="47.618,65.253 47.618,68.186 32.903,68.186 35.63,65.253 	"/>
	<path fill="#7FCEEE" d="M47.618,59.47v2.423H7.237c-1.625,0-3.016-1.004-3.592-2.423H47.618z"/>
</g>
</svg>
