<?xml version="1.0" encoding="utf-8"?>
<!-- Generator: Adobe Illustrator 16.0.0, SVG Export Plug-In . SVG Version: 6.00 Build 0)  -->
<!DOCTYPE svg PUBLIC "-//W3C//DTD SVG 1.1//EN" "http://www.w3.org/Graphics/SVG/1.1/DTD/svg11.dtd">
<svg version="1.1" id="Layer_1" xmlns="http://www.w3.org/2000/svg" xmlns:xlink="http://www.w3.org/1999/xlink" x="0px" y="0px"
	 width="245px" height="100px" viewBox="0 72 245 100" enable-background="new 0 72 245 100" xml:space="preserve">
<g>
	<path fill="#333333" d="M62.401,122.11c0-0.9-0.476-1.729-1.248-2.176l-20.742-11.932c-0.346-0.203-0.737-0.313-1.136-0.325h-0.217
		c-0.398,0.012-0.79,0.122-1.146,0.325l-20.734,11.932c-0.772,0.451-1.255,1.278-1.255,2.18l0.049,32.134
		c0,0.444,0.228,0.86,0.619,1.08c0.381,0.238,0.86,0.238,1.241,0l12.33-7.055c0.78-0.465,1.255-1.286,1.255-2.174v-15.016
		c0-0.896,0.472-1.723,1.248-2.167l5.25-3.024c0.388-0.225,0.818-0.335,1.251-0.335c0.43,0,0.867,0.11,1.245,0.335l5.248,3.021
		c0.776,0.446,1.251,1.274,1.251,2.171v15.009c0,0.892,0.482,1.716,1.255,2.174l12.323,7.055c0.388,0.231,0.867,0.231,1.251,0
		c0.381-0.217,0.623-0.636,0.623-1.08L62.401,122.11z M160.248,138.842c0,0.224-0.115,0.434-0.314,0.542l-7.117,4.107
		c-0.192,0.108-0.434,0.108-0.626,0l-7.125-4.107c-0.195-0.108-0.311-0.318-0.311-0.542v-8.223c0-0.225,0.115-0.432,0.308-0.543
		l7.117-4.113c0.199-0.111,0.438-0.111,0.633,0l7.121,4.113c0.196,0.111,0.314,0.318,0.314,0.543V138.842z M162.175,77.939
		c-0.392-0.217-0.863-0.21-1.245,0.012c-0.381,0.227-0.618,0.638-0.618,1.083v31.822c0,0.313-0.168,0.602-0.438,0.759
		c-0.272,0.157-0.604,0.157-0.877,0l-5.191-2.993c-0.776-0.447-1.728-0.447-2.507,0l-20.741,11.972
		c-0.776,0.446-1.255,1.272-1.255,2.164v23.949c0,0.895,0.479,1.72,1.255,2.167l20.741,11.98c0.776,0.444,1.73,0.444,2.507,0
		l20.741-11.983c0.776-0.451,1.255-1.272,1.255-2.168V87.015c0-0.909-0.496-1.744-1.29-2.187L162.175,77.939z M231.247,130.402
		c0.77-0.447,1.248-1.272,1.248-2.165v-5.804c0-0.893-0.479-1.716-1.248-2.166l-20.612-11.965c-0.775-0.451-1.733-0.451-2.51,0
		l-20.741,11.97c-0.776,0.449-1.252,1.271-1.252,2.169v23.94c0,0.898,0.482,1.73,1.263,2.178l20.608,11.746
		c0.755,0.434,1.688,0.44,2.454,0.011l12.467-6.926c0.391-0.224,0.64-0.636,0.64-1.087s-0.238-0.87-0.633-1.094l-20.86-11.974
		c-0.392-0.221-0.637-0.633-0.637-1.081v-7.511c0-0.449,0.238-0.86,0.633-1.085l6.488-3.744c0.389-0.226,0.86-0.226,1.248,0
		l6.496,3.744c0.388,0.222,0.625,0.636,0.625,1.082v5.906c0,0.447,0.245,0.859,0.63,1.084c0.388,0.224,0.867,0.224,1.251,0
		L231.247,130.402z"/>
	<path fill="#689F63" d="M209.076,129.282c0.15-0.086,0.328-0.086,0.479,0l3.982,2.297c0.146,0.086,0.241,0.245,0.241,0.416v4.596
		c0,0.171-0.095,0.332-0.241,0.419l-3.982,2.294c-0.15,0.087-0.328,0.087-0.479,0l-3.979-2.294
		c-0.146-0.087-0.245-0.248-0.245-0.419v-4.596c0-0.171,0.091-0.33,0.238-0.416L209.076,129.282z"/>
	<g>
		<defs>
			<path id="SVGID_1_" d="M94.609,108.422l-20.625,11.904c-0.773,0.446-1.245,1.271-1.245,2.157v23.827
				c0,0.892,0.472,1.713,1.245,2.16l20.625,11.91c0.773,0.444,1.724,0.444,2.493,0l20.626-11.91c0.769-0.447,1.241-1.272,1.241-2.16
				v-23.827c0-0.886-0.472-1.711-1.248-2.157l-20.623-11.904c-0.384-0.224-0.814-0.333-1.245-0.333c-0.434,0-0.86,0.11-1.248,0.333"
				/>
		</defs>
		<clipPath id="SVGID_2_">
			<use xlink:href="#SVGID_1_"  overflow="visible"/>
		</clipPath>
		<g transform="translate(-78.306 -164.016)" clip-path="url(#SVGID_2_)">
			
				<linearGradient id="SVGID_3_" gradientUnits="userSpaceOnUse" x1="-102.571" y1="684.4886" x2="-101.9836" y2="684.4886" gradientTransform="matrix(-50.7531 103.536 103.536 50.7531 -75886.0078 -23852.0859)">
				<stop  offset="0.3" style="stop-color:#3E863D"/>
				<stop  offset="0.5" style="stop-color:#55934F"/>
				<stop  offset="0.8" style="stop-color:#5AAD45"/>
			</linearGradient>
			<path fill="url(#SVGID_3_)" d="M218.118,282.321l-58.116-28.487l-29.799,60.791l58.116,28.491L218.118,282.321z"/>
		</g>
	</g>
	<g>
		<defs>
			<path id="SVGID_4_" d="M73.249,147.819c0.196,0.259,0.444,0.482,0.734,0.65l17.692,10.215l2.944,1.695
				c0.444,0.256,0.947,0.364,1.44,0.325c0.165-0.014,0.329-0.042,0.49-0.091l21.751-39.829c-0.164-0.18-0.36-0.332-0.577-0.459
				l-13.505-7.799l-7.142-4.108c-0.203-0.117-0.419-0.201-0.646-0.258L73.249,147.819z"/>
		</defs>
		<clipPath id="SVGID_5_">
			<use xlink:href="#SVGID_4_"  overflow="visible"/>
		</clipPath>
		<g transform="translate(-78.306 -164.016)" clip-path="url(#SVGID_5_)">
			
				<linearGradient id="SVGID_6_" gradientUnits="userSpaceOnUse" x1="-105.5138" y1="681.5814" x2="-105.133" y2="681.5814" gradientTransform="matrix(142.4074 -105.2221 -105.2221 -142.4074 86890.4688 86278.2734)">
				<stop  offset="0.57" style="stop-color:#3E863D"/>
				<stop  offset="0.72" style="stop-color:#619857"/>
				<stop  offset="1" style="stop-color:#76AC64"/>
			</linearGradient>
			<path fill="url(#SVGID_6_)" d="M126.43,290.748l41.035,55.543l54.271-40.099l-41.039-55.543L126.43,290.748z"/>
		</g>
	</g>
	<g>
		<defs>
			<path id="SVGID_7_" d="M95.605,108.103c-0.346,0.035-0.686,0.143-0.997,0.319l-20.566,11.873l22.178,40.393
				c0.308-0.045,0.612-0.146,0.884-0.308l20.626-11.91c0.636-0.37,1.073-0.996,1.206-1.706l-22.608-38.621
				c-0.165-0.032-0.332-0.049-0.503-0.049c-0.07,0-0.14,0.003-0.207,0.01"/>
		</defs>
		<clipPath id="SVGID_8_">
			<use xlink:href="#SVGID_7_"  overflow="visible"/>
		</clipPath>
		<g transform="translate(-78.306 -164.016)" clip-path="url(#SVGID_8_)">
			
				<linearGradient id="SVGID_9_" gradientUnits="userSpaceOnUse" x1="-103.9552" y1="680.8754" x2="-103.6095" y2="680.8754" gradientTransform="matrix(129.8891 0 0 -129.8891 13655.04 88736.5938)">
				<stop  offset="0.16" style="stop-color:#6BBF47"/>
				<stop  offset="0.38" style="stop-color:#79B461"/>
				<stop  offset="0.47" style="stop-color:#75AC64"/>
				<stop  offset="0.7" style="stop-color:#659E5A"/>
				<stop  offset="0.9" style="stop-color:#3E863D"/>
			</linearGradient>
			<path fill="url(#SVGID_9_)" d="M152.348,272.11v52.594h44.888V272.11H152.348z"/>
		</g>
	</g>
</g>
</svg>
