<?xml version="1.0" encoding="utf-8"?>
<!-- Generator: Adobe Illustrator 16.0.0, SVG Export Plug-In . SVG Version: 6.00 Build 0)  -->
<!DOCTYPE svg PUBLIC "-//W3C//DTD SVG 1.1//EN" "http://www.w3.org/Graphics/SVG/1.1/DTD/svg11.dtd">
<svg version="1.1" id="Layer_1" xmlns="http://www.w3.org/2000/svg" xmlns:xlink="http://www.w3.org/1999/xlink" x="0px" y="0px"
	 width="612px" height="792px" viewBox="0 0 612 792" enable-background="new 0 0 612 792" xml:space="preserve">
<title>logo</title>
<path fill="#61DAFB" d="M405.41,347.718L405.41,347.718c-3.284-1.126-6.595-2.17-9.933-3.129c0.554-2.249,1.065-4.506,1.535-6.774
	c7.519-36.496,2.603-65.896-14.185-75.575c-16.095-9.282-42.418,0.396-69.003,23.531c-2.62,2.285-5.181,4.635-7.682,7.05
	c-1.675-1.605-3.378-3.179-5.112-4.722c-27.862-24.739-55.79-35.163-72.559-25.456c-16.079,9.309-20.842,36.949-14.074,71.536
	c0.674,3.425,1.434,6.831,2.281,10.219c-3.952,1.123-7.768,2.319-11.419,3.591c-32.665,11.388-53.526,29.237-53.526,47.75
	c0,19.122,22.393,38.301,56.417,49.928c2.759,0.938,5.54,1.808,8.343,2.608c-0.911,3.648-1.718,7.32-2.424,11.015
	c-6.454,33.986-1.414,60.972,14.624,70.223c16.564,9.552,44.365-0.266,71.436-23.93c2.14-1.87,4.286-3.849,6.438-5.935
	c2.709,2.614,5.488,5.15,8.34,7.61c26.223,22.563,52.119,31.676,68.144,22.4c16.549-9.58,21.926-38.57,14.943-73.841
	c-0.532-2.694-1.149-5.443-1.851-8.248c1.952-0.576,3.865-1.174,5.738-1.791c35.37-11.718,58.382-30.664,58.382-50.041
	C460.266,377.159,438.733,359.19,405.41,347.718z M322.478,295.714c22.779-19.824,44.067-27.65,53.768-22.056l0,0
	c10.331,5.958,14.35,29.986,7.858,61.497c-0.426,2.053-0.888,4.097-1.387,6.133c-13.593-3.081-27.374-5.257-41.253-6.517
	c-7.952-11.424-16.666-22.298-26.081-32.55C317.694,299.994,320.059,297.825,322.478,295.714z M242.833,411.554
	c2.791,5.389,5.706,10.711,8.747,15.965c3.103,5.357,6.332,10.64,9.687,15.845c-9.55-1.036-19.041-2.563-28.435-4.572
	C235.556,429.995,238.912,420.853,242.833,411.554z M242.818,380.555c-3.838-9.104-7.122-18.054-9.804-26.698
	c8.803-1.97,18.19-3.58,27.971-4.802c-3.274,5.106-6.427,10.288-9.458,15.544C248.5,369.849,245.597,375.167,242.818,380.555z
	 M249.824,396.056c4.061-8.453,8.436-16.744,13.123-24.873v0.002c4.683-8.125,9.67-16.064,14.96-23.816
	c9.175-0.693,18.583-1.057,28.094-1.057c9.552,0,18.972,0.366,28.146,1.065c5.233,7.734,10.188,15.646,14.865,23.736
	c4.701,8.105,9.135,16.357,13.301,24.755c-4.121,8.48-8.54,16.804-13.257,24.975h-0.002c-4.673,8.118-9.606,16.079-14.801,23.881
	c-9.154,0.654-18.614,0.992-28.254,0.992c-9.601,0-18.94-0.299-27.935-0.882c-5.326-7.78-10.353-15.753-15.079-23.919
	C258.286,412.798,253.899,404.512,249.824,396.056L249.824,396.056z M360.474,427.427c3.103-5.382,6.085-10.831,8.947-16.347l0,0
	c3.921,8.861,7.38,17.92,10.361,27.141c-9.502,2.136-19.109,3.772-28.781,4.906C354.263,437.957,357.42,432.724,360.474,427.427
	L360.474,427.427z M369.295,380.564c-2.851-5.411-5.809-10.762-8.875-16.055l0,0c-3.016-5.21-6.144-10.354-9.382-15.43
	c9.845,1.242,19.276,2.895,28.132,4.917C376.328,363.013,373.031,371.88,369.295,380.564L369.295,380.564z M306.148,311.647
	c6.417,6.996,12.478,14.311,18.156,21.918c-12.148-0.574-24.304-0.577-36.465-0.008
	C293.833,325.653,299.973,318.309,306.148,311.647z M235.076,274.05c10.323-5.975,33.146,2.545,57.203,23.904
	c1.538,1.366,3.082,2.795,4.629,4.274c-9.469,10.25-18.25,21.115-26.282,32.525c-13.847,1.242-27.6,3.379-41.171,6.399
	c-0.787-3.15-1.494-6.319-2.121-9.506v0.001C221.534,302.013,225.385,279.659,235.076,274.05z M220.031,435.58
	c-2.558-0.732-5.096-1.527-7.616-2.385c-13.066-4.11-25.264-10.591-35.985-19.116c-6.208-4.259-10.377-10.897-11.516-18.34
	c0-11.233,16.75-25.564,44.686-35.304c3.506-1.217,7.046-2.331,10.619-3.341c4.148,13.306,9.171,26.323,15.038,38.966
	C229.317,408.884,224.231,422.086,220.031,435.58z M291.458,495.658c-10.089,9.266-21.796,16.595-34.538,21.622h-0.001
	c-6.79,3.25-14.623,3.545-21.638,0.814c-9.733-5.612-13.777-27.282-8.259-56.346c0.656-3.435,1.407-6.85,2.253-10.243
	c13.708,2.944,27.598,4.955,41.578,6.019c8.102,11.476,16.949,22.406,26.484,32.722
	C295.421,492.098,293.462,493.902,291.458,495.658z M306.512,480.762c-6.247-6.741-12.477-14.197-18.563-22.217
	c5.907,0.233,11.924,0.35,18.051,0.351c6.289-0.001,12.497-0.139,18.625-0.414C318.972,466.213,312.926,473.648,306.512,480.762
	L306.512,480.762z M386.549,499.099c-0.575,7.506-4.231,14.439-10.101,19.153c-9.724,5.629-30.518-1.688-52.941-20.984
	c-2.571-2.212-5.157-4.569-7.759-7.073c9.351-10.351,17.991-21.322,25.862-32.838c14.06-1.187,28.021-3.339,41.786-6.441
	c0.629,2.54,1.186,5.028,1.67,7.464l0,0C388.056,471.746,388.558,485.55,386.549,499.099L386.549,499.099z M397.74,433.27h-0.002
	c-1.686,0.559-3.417,1.098-5.182,1.62c-4.314-13.368-9.534-26.427-15.623-39.086c5.858-12.489,10.875-25.357,15.016-38.516
	c3.155,0.915,6.22,1.878,9.172,2.895c28.552,9.827,45.967,24.359,45.967,35.556C447.087,407.666,428.278,423.15,397.74,433.27
	L397.74,433.27z"/>
<path fill="#61DAFB" d="M306,340.834c30.183-0.001,54.65,24.466,54.651,54.649c0.001,30.183-24.467,54.651-54.649,54.652
	s-54.65-24.467-54.651-54.649c0-0.001,0-0.002,0-0.003C251.351,365.301,275.818,340.834,306,340.834
	C306,340.834,306,340.834,306,340.834"/>
</svg>
