<?xml version="1.0" encoding="utf-8"?>
<!-- Generator: Adobe Illustrator 16.0.0, SVG Export Plug-In . SVG Version: 6.00 Build 0)  -->
<!DOCTYPE svg PUBLIC "-//W3C//DTD SVG 1.1//EN" "http://www.w3.org/Graphics/SVG/1.1/DTD/svg11.dtd">
<svg version="1.1" id="Layer_1" xmlns="http://www.w3.org/2000/svg" xmlns:xlink="http://www.w3.org/1999/xlink" x="0px" y="0px"
	 width="94.317px" height="58.901px" viewBox="0 0 94.317 58.901" enable-background="new 0 0 94.317 58.901" xml:space="preserve">
<g>
	<path opacity="0.2" fill="#CFD4D9" d="M29.26,57.979L1.598,42.009c-2.131-1.23-2.131-3.225,0-4.454L56.772,6.116
		c2.131-1.23,5.584-1.23,7.715,0l27.662,15.971c2.131,1.23,2.131,3.224,0,4.453L36.975,57.979
		C34.845,59.209,31.39,59.209,29.26,57.979z"/>
	<path fill="#D4DBDC" d="M9.008,32.496L57.502,4.497c1.975-1.14,5.177-1.14,7.15,0l26.346,15.211l3.318-0.518v3.643
		c0,0.747-0.493,1.494-1.48,2.064l-52.79,30.478c-1.975,1.141-5.177,1.141-7.152,0L4.713,39.104
		c-0.988-0.57-1.481-1.317-1.481-2.064v-3.644L9.008,32.496z"/>
	<path fill="#F1F3EE" d="M3.231,33.396c0,0.748,0.494,1.494,1.481,2.064l28.182,16.271c1.975,1.141,5.177,1.141,7.152,0
		l52.79-30.479c0.987-0.569,1.48-1.317,1.48-2.063c0-0.748-0.493-1.494-1.48-2.065L64.653,0.854c-1.974-1.14-5.176-1.14-7.15,0
		L4.713,31.333C3.725,31.903,3.231,32.649,3.231,33.396z"/>
	<g>
		<g>
			<path fill="#AEB8DB" d="M12.272,30.308c0.066-0.339,0.324-0.666,0.776-0.925l15.603-9.009L58.042,3.405
				c1.06-0.612,2.783-0.612,3.839-0.004l27.099,15.646c0.448,0.259,0.711,0.59,0.775,0.93c0.096-0.459-0.163-0.94-0.775-1.294
				L61.88,3.038c-1.056-0.609-2.779-0.609-3.839,0.004L28.027,20.37l-14.979,8.648C12.439,29.368,12.181,29.849,12.272,30.308z"/>
		</g>
		<g>
			<path fill="#FFE3BD" d="M13.044,31.598l27.1,15.643c1.06,0.615,2.786,0.611,3.842,0.003l44.993-25.978
				c0.234-0.135,0.42-0.287,0.543-0.451c0.215-0.266,0.291-0.554,0.232-0.837c-0.064-0.34-0.327-0.671-0.775-0.93L61.88,3.401
				c-1.056-0.608-2.779-0.608-3.839,0.004L28.65,20.374l-15.603,9.009c-0.452,0.259-0.71,0.586-0.776,0.925
				C12.181,30.767,12.436,31.244,13.044,31.598z"/>
		</g>
		<g>
			<path fill="#B1CB3B" d="M15.894,27.736l-2.845,1.644c-1.058,0.611-1.062,1.608-0.002,2.219l7.138,4.12
				c1.735-0.932,3.348-1.926,4.841-2.979C21.979,31.071,18.937,29.405,15.894,27.736z"/>
			<path fill="#FFE3BD" d="M24.746,22.627l-7.65,4.416c2.996,1.64,5.991,3.28,8.987,4.923c2.278-1.721,4.238-3.58,5.833-5.545
				C29.526,25.155,27.135,23.892,24.746,22.627z"/>
			<path fill="#FFE3BD" d="M30.7,19.189l-4.747,2.74c2.232,1.184,4.465,2.364,6.701,3.546c0.873-1.176,1.62-2.388,2.232-3.628
				C33.378,21.055,31.828,20.185,30.7,19.189z"/>
			<path fill="#FFE3BD" d="M35.777,16.257l-3.891,2.247c1.723,1.696,4.978,3.099,7.34,4.204c2.373,1.106,4.896,2.102,7.463,3.058
				c0.991-0.885,1.956-1.767,2.896-2.64c2.323-2.154,4.71-4.338,7.344-6.4c-2.163-1.078-4.153-2.304-6.122-3.542
				c-2.07,2.496-5.975,5.77-11.547,4.279C38.071,17.144,36.896,16.729,35.777,16.257z"/>
			<path fill="#FFE3BD" d="M46.091,10.303l-9.054,5.228c0.463,0.191,0.921,0.371,1.371,0.547c5.409,2.121,9.009-1.009,11.068-3.561
				c0.031-0.038,0.07-0.072,0.11-0.102C48.432,11.693,47.28,10.979,46.091,10.303z"/>
			<path fill="#B1CB3B" d="M53.349,6.112l-6.044,3.49c3.633,2.056,6.87,4.394,10.708,6.297c1.811-1.356,3.742-2.646,5.848-3.824
				C60.268,10.138,56.762,8.152,53.349,6.112z"/>
			<path fill="#FFE3BD" d="M58.042,3.403L54.55,5.419c3.428,2.045,6.946,4.042,10.556,5.986c1.881-0.978,3.898-1.861,6.088-2.626
				l-9.312-5.376C60.823,2.791,59.1,2.791,58.042,3.403z"/>
			<path fill="#B1CB3B" d="M36.287,22.563c-0.643,1.236-1.419,2.44-2.314,3.612c2.475,1.311,4.954,2.622,7.429,3.932
				c1.535-1.142,2.979-2.329,4.358-3.528C42.469,25.347,39.266,24.037,36.287,22.563z"/>
			<path fill="#FFE3BD" d="M40.34,30.877c-2.373-1.257-4.748-2.513-7.122-3.769c-1.635,1.959-3.619,3.809-5.912,5.525
				c1.714,0.94,3.428,1.877,5.138,2.816C35.356,34.133,37.958,32.57,40.34,30.877z"/>
			<path fill="#FFE3BD" d="M31.061,36.045c-1.608-0.879-3.212-1.76-4.819-2.639c-1.505,1.058-3.134,2.058-4.875,2.996l3.055,1.764
				C26.805,37.608,29.01,36.89,31.061,36.045z"/>
			<path fill="#FFE3BD" d="M72.402,9.477c-5.272,1.748-9.468,4.216-13.168,7.003c1.472,0.668,3.036,1.267,4.756,1.759
				c3.844,1.104,8.356,1.354,12.355,0.391c2.621-0.634,4.798-1.758,6.725-2.993L72.402,9.477z"/>
			<path fill="#FFE3BD" d="M58.161,17.311c-1.492,1.176-2.912,2.401-4.301,3.649c4.046,1.961,8.393,3.693,12.977,5.184
				c0.445-0.316,0.897-0.634,1.346-0.949c2.188-1.539,4.305-3.116,5.136-5.056c-2.526,0.194-5.136-0.002-7.583-0.442
				C62.898,19.188,60.426,18.338,58.161,17.311z"/>
			<path fill="#FFE3BD" d="M52.94,21.788c-1.639,1.488-3.239,2.998-4.883,4.479c1.234,0.45,2.472,0.895,3.709,1.34
				c2.869,1.033,5.736,2.086,8.494,3.216c0.029-0.057,0.081-0.11,0.153-0.163c1.78-1.253,3.56-2.503,5.336-3.753
				C61.237,25.43,56.954,23.72,52.94,21.788z"/>
			<path fill="#FFE3BD" d="M25.756,38.938l10.719,6.188c0.922-0.326,1.82-0.673,2.694-1.037c-1.029-0.436-2.045-0.88-3.049-1.333
				c-0.858-0.387-1.699-0.777-2.53-1.177c-0.261-0.122-0.521-0.248-0.777-0.375c-0.518-0.25-1.03-0.504-1.541-0.759
				c-0.321-0.162-0.637-0.323-0.956-0.486c-0.439-0.226-0.879-0.455-1.313-0.685c-0.03-0.018-0.063-0.033-0.093-0.051
				c-0.467-0.249-0.929-0.497-1.39-0.749C26.945,38.64,26.356,38.793,25.756,38.938z"/>
			<path fill="#FFE3BD" d="M47.138,27.089c-2.424,2.149-4.96,4.22-7.82,6.063c0.049,0.018,0.1,0.04,0.148,0.064
				c5.047,2.673,10.39,5.141,16.007,7.396l10.371-5.987C60.25,31.672,53.534,29.435,47.138,27.089z"/>
			<path fill="#B1CB3B" d="M38.18,33.861c-2.672,1.617-5.639,3.031-9.058,4.133c3.613,1.967,7.423,3.796,11.449,5.479
				c2.915-1.322,5.535-2.86,7.795-4.595c0.019-0.015,0.039-0.023,0.059-0.038c-3.504-1.556-6.896-3.199-10.163-4.927
				C38.229,33.896,38.208,33.877,38.18,33.861z"/>
			<path fill="#B1CB3B" d="M75.135,19.927c-0.031,0.095-0.062,0.188-0.101,0.282c-0.015,0.05-0.036,0.101-0.058,0.148
				c-0.031,0.077-0.061,0.153-0.1,0.229c-0.021,0.051-0.049,0.101-0.072,0.154c-0.064,0.123-0.131,0.246-0.204,0.369
				c-0.062,0.098-0.122,0.196-0.185,0.292c-0.07,0.107-0.146,0.211-0.225,0.316c-0.019,0.027-0.037,0.056-0.062,0.08
				c-0.075,0.1-0.151,0.199-0.236,0.297c-0.093,0.114-0.19,0.227-0.292,0.337c-0.203,0.229-0.428,0.454-0.66,0.677
				c-0.42,0.396-0.877,0.782-1.356,1.16c-0.115,0.091-0.228,0.181-0.345,0.27c-0.319,0.247-0.65,0.491-0.983,0.732
				c-0.624,0.455-1.259,0.905-1.893,1.355c2.499,0.773,5.065,1.475,7.694,2.1l10.193-5.884c-2.748-1.09-5.294-2.324-7.642-3.704
				c-0.036-0.021-0.063-0.044-0.089-0.064c-0.433,0.145-0.879,0.282-1.337,0.411C76.518,19.668,75.833,19.814,75.135,19.927z"/>
			<path fill="#FFE3BD" d="M79.973,18.534c2.305,1.345,4.795,2.545,7.501,3.602l1.508-0.87c1.06-0.61,1.06-1.605-0.003-2.219
				l-4.729-2.73C82.942,17.135,81.542,17.895,79.973,18.534z"/>
			<path fill="#FFE3BD" d="M67.276,27.396c-1.878,1.321-3.777,2.635-5.658,3.959c1.857,0.827,3.684,1.674,5.408,2.587l7.739-4.468
				C72.208,28.85,69.714,28.155,67.276,27.396z"/>
			<path fill="#B1CB3B" d="M37.71,45.839l2.433,1.404c1.062,0.612,2.787,0.61,3.846,0l2.885-1.666
				c-1.438-0.592-2.873-1.186-4.311-1.777C41.032,44.54,39.412,45.22,37.71,45.839z"/>
			<path fill="#FFE3BD" d="M43.876,43.14c1.402,0.578,2.806,1.158,4.21,1.737l6.167-3.56c-1.522-0.613-3.019-1.242-4.499-1.887
				C47.987,40.781,46.021,42.021,43.876,43.14z"/>
			<g>
				<path fill="#FAB58D" d="M27.911,25.31l2.432,1.286c-0.602,0.706-1.257,1.398-1.956,2.076l-2.782-1.606
					C26.317,26.456,27.064,25.861,27.911,25.31z"/>
				<path fill="#FAB58D" d="M27.294,24.983c-0.837,0.548-1.575,1.138-2.281,1.74l-2.773-1.601l2.543-1.468L27.294,24.983z"/>
				<path fill="#FAB58D" d="M25.132,27.475l2.805,1.62c-0.641,0.597-1.309,1.185-2.021,1.756c-0.956-0.523-1.909-1.046-2.863-1.569
					C23.77,28.69,24.443,28.079,25.132,27.475z"/>
				<path fill="#FAB58D" d="M24.54,27.134c-0.692,0.607-1.369,1.223-2.092,1.816c-1.168-0.64-2.338-1.281-3.507-1.921l2.709-1.564
					L24.54,27.134z"/>
				<path fill="#FAB58D" d="M32.159,24.207c0.468-0.698,0.892-1.409,1.267-2.126c-0.393-0.212-0.736-0.402-1.052-0.584
					c-0.701-0.405-1.306-0.792-1.828-1.169l-2.734,1.579C29.26,22.675,30.709,23.44,32.159,24.207z"/>
				<path fill="#FAB58D" d="M43.536,12.829l2.552-1.474c0.665,0.393,1.315,0.793,1.944,1.184c-0.824,0.971-1.668,1.74-2.524,2.31
					C45.125,14.131,44.399,13.462,43.536,12.829z"/>
				<path fill="#FAB58D" d="M44.842,15.248c-0.682,0.365-1.371,0.606-2.064,0.716c-1.133,0.181-2.327,0.017-3.65-0.503
					c-0.03-0.011-0.061-0.022-0.091-0.035l3.931-2.27C43.858,13.813,44.573,14.51,44.842,15.248z"/>
				<path fill="#FAB58D" d="M62.541,4.834l2.986,1.725c-1.155,0.72-2.588,1.279-3.798,1.961c-0.946-0.53-1.887-1.064-2.816-1.601
					C60.299,6.335,61.732,5.661,62.541,4.834z"/>
				<path fill="#FAB58D" d="M60.973,3.929l0.953,0.55c-0.721,0.832-2.217,1.519-3.604,2.096c-0.655-0.38-1.313-0.763-1.965-1.148
					l2.594-1.497C59.508,3.606,60.416,3.606,60.973,3.929z"/>
				<path fill="#FAB58D" d="M66.117,6.899l3.031,1.749c-1.366,0.524-2.708,1.111-4.013,1.753c-0.943-0.511-1.883-1.031-2.818-1.554
					C63.514,8.164,64.961,7.612,66.117,6.899z"/>
				<path fill="#FAB58D" d="M31.876,30.083c0.605-0.578,1.188-1.165,1.728-1.763c1.655,0.876,3.31,1.751,4.965,2.627
					c-0.747,0.512-1.493,0.992-2.24,1.446C35.052,31.501,33.362,30.857,31.876,30.083z"/>
				<path fill="#FAB58D" d="M35.748,32.739c-1.067,0.627-2.142,1.2-3.234,1.724l-3.488-1.911c0.851-0.664,1.655-1.349,2.414-2.048
					C32.891,31.239,34.546,31.862,35.748,32.739z"/>
				<path fill="#FAB58D" d="M25.302,35.154c0.351-0.221,0.705-0.441,1.043-0.667l2.669,1.462c-0.539,0.2-1.085,0.387-1.635,0.565
					C26.771,36.023,26.038,35.589,25.302,35.154z"/>
				<path fill="#FAB58D" d="M26.634,36.749c-0.633,0.194-1.271,0.374-1.916,0.538l-1.512-0.873c0.523-0.296,1.034-0.598,1.535-0.904
					C25.414,35.905,26.075,36.305,26.634,36.749z"/>
				<path fill="#FAB58D" d="M65.557,13.442c2.146-1.214,4.332-2.215,6.641-3.032l4.773,2.755
					C73.946,14.525,69.26,14.383,65.557,13.442z"/>
				<path fill="#FAB58D" d="M73.158,14.638c-0.007-0.024-0.026-0.041-0.042-0.061c1.646-0.137,3.188-0.477,4.456-1.064l3.709,2.141
					c-1.88,1.118-3.626,1.854-5.431,2.289c-0.521,0.127-1.059,0.228-1.605,0.309C74.092,17.028,73.522,15.845,73.158,14.638z"/>
				<path fill="#FAB58D" d="M67.705,14.375c-1.26,1.042-1.192,2.35-1.82,3.53c-0.444-0.101-0.887-0.207-1.323-0.333
					c-1.18-0.338-2.336-0.742-3.507-1.23c1.288-0.936,2.573-1.775,3.869-2.537C65.805,14.041,66.743,14.233,67.705,14.375z"/>
				<path fill="#FAB58D" d="M68.465,14.584c0.043-0.034,0.063-0.067,0.07-0.101c1.277,0.146,2.582,0.2,3.84,0.143
					c-0.027,0.039-0.043,0.083-0.027,0.134c0.362,1.201,0.937,2.379,1.068,3.598c-2.176,0.233-4.496,0.135-6.746-0.288
					C67.299,16.907,67.204,15.603,68.465,14.584z"/>
				<path fill="#FAB58D" d="M61.185,26.186c0.86,0.318,1.73,0.627,2.608,0.927L59.972,29.8c-0.518-0.207-1.04-0.409-1.563-0.612
					C59.583,28.275,60.285,27.209,61.185,26.186z"/>
				<path fill="#FAB58D" d="M56.947,24.521c1.159,0.482,2.337,0.951,3.534,1.4c-0.898,1.021-1.582,2.092-2.768,2.998
					c-1.092-0.415-2.182-0.82-3.262-1.215C55.411,26.678,56.286,25.632,56.947,24.521z"/>
				<path fill="#FAB58D" d="M56.239,24.22c-0.646,1.13-1.524,2.188-2.492,3.227c-0.438-0.158-0.871-0.315-1.301-0.47
					c-0.87-0.313-1.74-0.625-2.608-0.94c0.671-0.61,1.335-1.225,2.001-1.839c0.469-0.435,0.939-0.868,1.412-1.302
					C54.227,23.35,55.226,23.79,56.239,24.22z"/>
				<path fill="#FAB58D" d="M84.299,19.82c-0.807-0.39-1.597-0.793-2.361-1.215c0.773-0.361,1.547-0.769,2.333-1.226l2.388,1.378
					C85.879,19.119,85.096,19.476,84.299,19.82z"/>
				<path fill="#FAB58D" d="M87.25,19.1l0.819,0.474c0.559,0.322,0.561,0.847,0.004,1.168l-0.749,0.432
					c-0.804-0.33-1.589-0.679-2.361-1.039C85.734,19.797,86.495,19.45,87.25,19.1z"/>
				<path fill="#FAB58D" d="M66.477,29.124c0.375-0.263,0.75-0.524,1.124-0.786c1.618,0.49,3.264,0.952,4.919,1.382l-1.983,1.146
					C69.131,30.335,67.891,29.653,66.477,29.124z"/>
				<path fill="#FAB58D" d="M69.958,31.199l-2.979,1.721c-1.099-0.558-2.271-1.109-3.544-1.67c0.652-0.457,1.307-0.913,1.96-1.37
					c0.183-0.127,0.364-0.254,0.547-0.382C67.354,30.009,68.587,30.661,69.958,31.199z"/>
				<path fill="#FAB58D" d="M48.461,41.511c0.523-0.342,1.039-0.69,1.534-1.049c0.767,0.328,1.519,0.645,2.267,0.953l-1.848,1.067
					C49.774,42.151,49.118,41.832,48.461,41.511z"/>
				<path fill="#FAB58D" d="M47.907,41.87c0.643,0.315,1.287,0.629,1.917,0.954l-1.876,1.082l-2.044-0.844
					C46.59,42.678,47.258,42.28,47.907,41.87z"/>
			</g>
			<path fill="#91D6DF" d="M42.869,23.161c-0.082,0.359-0.121,0.718-0.118,1.077c-0.009,0.408,0.037,0.816,0.11,1.222
				c0.172,0.951,0.521,1.892,0.864,2.832c0.161,0.437,0.319,0.874,0.455,1.313c0.04,0.117,0.076,0.233,0.109,0.351
				c0.543,1.854,0.395,3.657-0.728,5.352c-0.206,0.313-0.445,0.622-0.722,0.929c-0.163,0.186-0.343,0.369-0.537,0.552
				c-1.874,1.775-4.358,3.146-7.201,4.245c-0.491,0.188-0.995,0.371-1.511,0.546c-0.685,0.235-1.392,0.454-2.111,0.662l2.257,1.303
				c0.81-0.246,1.607-0.508,2.381-0.79c0.506-0.181,0.999-0.369,1.48-0.566c1.942-0.796,3.705-1.722,5.197-2.821
				c0.861-0.635,1.671-1.309,2.369-2.017c0.285-0.29,0.553-0.585,0.794-0.886c0.64-0.79,1.123-1.621,1.369-2.489
				c0.615-2.173-0.067-4.21-0.819-6.332c-0.025-0.069-0.049-0.144-0.076-0.216c-0.215-0.606-0.44-1.283-0.579-1.977
				c-0.361-1.807-0.152-3.741,2.278-4.951c1.596-0.795,3.395-0.951,5.208-0.779c0.552,0.052,1.101,0.135,1.647,0.24
				c1.861,0.354,3.676,0.956,5.236,1.475c3.051,1.012,6.188,1.919,9.404,2.716c0.535,0.133,1.072,0.265,1.615,0.389
				c2.93,0.69,5.921,1.29,8.966,1.794l2.415-1.395c-3.283-0.5-6.528-1.1-9.68-1.829c-0.513-0.118-1.023-0.24-1.529-0.365
				c-0.021-0.005-0.042-0.011-0.063-0.016c-4.279-1.063-8.187-2.464-12.345-3.656c-0.734-0.211-1.506-0.411-2.3-0.582
				c-0.522-0.111-1.052-0.215-1.591-0.298c-2.17-0.336-4.439-0.399-6.563,0.141C45.166,19.191,43.34,21.114,42.869,23.161z"/>
			<g>
				<path fill="#F7F8EF" d="M63.86,12.075c-2.105,1.178-4.037,2.468-5.848,3.824c-3.838-1.903-7.074-4.241-10.708-6.297l-1.214,0.7
					c1.189,0.676,2.341,1.391,3.495,2.112c-0.04,0.029-0.079,0.063-0.11,0.102c-2.059,2.552-5.659,5.682-11.068,3.56
					c-0.449-0.175-0.907-0.354-1.371-0.546l-1.26,0.727c1.12,0.472,2.294,0.887,3.483,1.206c5.572,1.49,9.477-1.783,11.547-4.279
					c1.969,1.238,3.959,2.464,6.122,3.542c-0.619,0.483-1.22,0.974-1.815,1.467c-0.299,0.254-0.6,0.508-0.893,0.763
					c-0.211,0.177-0.416,0.355-0.62,0.535c-0.023,0.021-0.048,0.043-0.072,0.063c-0.063,0.056-0.128,0.113-0.191,0.167
					c-0.428,0.376-0.853,0.755-1.271,1.133c-0.241,0.218-0.481,0.437-0.722,0.655c-0.176,0.157-0.346,0.315-0.519,0.475
					c-0.416,0.38-0.828,0.762-1.24,1.144c-0.94,0.873-1.905,1.755-2.896,2.64c-0.279-0.105-0.562-0.209-0.837-0.315
					c-0.261-0.098-0.525-0.197-0.783-0.298c-0.188-0.07-0.373-0.142-0.558-0.214c-0.227-0.089-0.455-0.179-0.685-0.27
					c-0.155-0.062-0.31-0.123-0.464-0.184c-0.058-0.023-0.109-0.046-0.167-0.068c-0.152-0.06-0.298-0.119-0.443-0.179
					c-0.303-0.122-0.6-0.245-0.898-0.372c-0.294-0.123-0.592-0.25-0.886-0.378c-0.115-0.049-0.231-0.098-0.342-0.148
					c-0.167-0.072-0.333-0.147-0.5-0.223c-0.304-0.133-0.601-0.27-0.898-0.409c-2.363-1.105-5.617-2.508-7.34-4.204L30.7,19.189
					c1.128,0.995,2.678,1.865,4.186,2.658c-0.613,1.24-1.359,2.452-2.232,3.628c-2.236-1.182-4.468-2.362-6.701-3.546l-1.207,0.697
					c2.39,1.265,4.78,2.528,7.17,3.794c-1.596,1.965-3.555,3.824-5.833,5.545c-2.996-1.643-5.991-3.283-8.987-4.923l-1.202,0.693
					c3.043,1.669,6.085,3.335,9.131,5.003c-1.493,1.054-3.106,2.048-4.841,2.979l1.183,0.684c1.741-0.938,3.37-1.938,4.875-2.996
					c1.607,0.879,3.211,1.76,4.819,2.639c-2.05,0.845-4.256,1.563-6.64,2.121l1.335,0.771c0.6-0.145,1.189-0.298,1.765-0.463
					c0.46,0.252,0.922,0.5,1.39,0.749c0.03,0.018,0.063,0.033,0.093,0.051c0.434,0.229,0.874,0.459,1.313,0.685
					c0.319,0.163,0.634,0.324,0.956,0.486c0.51,0.255,1.022,0.509,1.541,0.759c0.256,0.127,0.516,0.253,0.777,0.375
					c0.831,0.399,1.672,0.79,2.53,1.177c1.004,0.453,2.02,0.897,3.049,1.333c-0.874,0.364-1.772,0.711-2.694,1.037l1.235,0.713
					c1.702-0.619,3.322-1.299,4.853-2.039c1.438,0.592,2.873,1.186,4.311,1.777l1.212-0.7c-1.404-0.579-2.808-1.159-4.21-1.737
					c2.145-1.119,4.11-2.358,5.878-3.709c1.48,0.645,2.977,1.273,4.499,1.887l1.22-0.705c-0.41-0.163-0.813-0.329-1.223-0.495
					c-0.404-0.167-0.807-0.333-1.21-0.503c-0.233-0.097-0.468-0.196-0.698-0.294c-0.293-0.125-0.585-0.247-0.877-0.373
					c-0.066-0.031-0.133-0.06-0.203-0.09c-0.294-0.124-0.588-0.252-0.877-0.379c-0.566-0.248-1.131-0.5-1.688-0.753
					c-0.485-0.217-0.962-0.436-1.441-0.655c-0.228-0.104-0.449-0.207-0.668-0.313c-0.185-0.086-0.366-0.169-0.548-0.258
					c-0.028-0.012-0.055-0.024-0.083-0.036c-0.063-0.03-0.127-0.06-0.188-0.091c-0.342-0.159-0.676-0.32-1.013-0.483
					c-0.34-0.161-0.671-0.324-1.004-0.488c-0.063-0.03-0.127-0.063-0.191-0.094c-0.454-0.224-0.912-0.449-1.361-0.678
					c-0.279-0.14-0.555-0.281-0.828-0.421c-0.64-0.328-1.277-0.657-1.905-0.992c-0.048-0.024-0.1-0.047-0.148-0.064
					c0.179-0.113,0.354-0.229,0.53-0.349c0.125-0.082,0.252-0.166,0.374-0.25c0.075-0.052,0.151-0.103,0.23-0.154
					c0.113-0.079,0.228-0.159,0.343-0.24c0.066-0.046,0.133-0.092,0.197-0.138c0.121-0.085,0.243-0.169,0.361-0.255
					c0.03-0.021,0.061-0.041,0.088-0.064c0.045-0.034,0.088-0.064,0.137-0.096c0.215-0.156,0.428-0.314,0.64-0.472
					c0.021-0.016,0.04-0.029,0.061-0.045c0.048-0.036,0.097-0.074,0.146-0.109c0.197-0.148,0.394-0.302,0.591-0.453
					c0.18-0.139,0.358-0.277,0.534-0.417c0.212-0.169,0.422-0.334,0.637-0.509c0.019-0.014,0.036-0.031,0.054-0.045
					c0.158-0.13,0.313-0.253,0.467-0.386c0.236-0.195,0.474-0.392,0.729-0.605c0.245-0.209,0.488-0.415,0.731-0.625
					c0.111-0.1,0.227-0.198,0.34-0.298c0.212-0.183,0.421-0.369,0.631-0.554c6.396,2.346,13.113,4.583,18.707,7.536l1.182-0.683
					c-1.725-0.913-3.551-1.76-5.408-2.587c1.881-1.324,3.78-2.638,5.658-3.959c2.438,0.759,4.932,1.452,7.489,2.078l1.294-0.748
					c-2.629-0.625-5.195-1.326-7.694-2.1c0.634-0.45,1.269-0.9,1.893-1.355c0.333-0.241,0.664-0.485,0.983-0.732
					c0.117-0.089,0.233-0.18,0.345-0.27c0.479-0.378,0.937-0.765,1.356-1.16c0.232-0.223,0.457-0.447,0.66-0.677
					c0.102-0.11,0.199-0.223,0.292-0.337c0.085-0.098,0.161-0.197,0.236-0.297c0.024-0.024,0.043-0.053,0.062-0.08
					c0.078-0.105,0.154-0.209,0.225-0.316c0.063-0.096,0.123-0.194,0.185-0.292c0.073-0.123,0.14-0.246,0.204-0.369
					c0.023-0.05,0.048-0.102,0.072-0.154c0.039-0.076,0.068-0.152,0.1-0.229c0.024-0.05,0.043-0.099,0.058-0.148
					c0.039-0.094,0.069-0.188,0.101-0.282c0.697-0.112,1.383-0.259,2.05-0.441c0.458-0.129,0.904-0.267,1.337-0.411
					c0.025,0.021,0.053,0.044,0.089,0.064c2.348,1.38,4.894,2.614,7.642,3.704l1.222-0.707c-2.706-1.057-5.196-2.257-7.501-3.602
					c1.568-0.64,2.969-1.399,4.277-2.218l-1.181-0.681c-1.927,1.235-4.104,2.359-6.725,2.993c-3.999,0.964-8.512,0.714-12.355-0.391
					c-1.72-0.492-3.284-1.091-4.756-1.759c3.7-2.787,7.896-5.255,13.168-7.003l-1.208-0.697c-2.189,0.765-4.207,1.648-6.088,2.626
					c-3.609-1.944-7.128-3.941-10.556-5.986l-1.201,0.693C56.762,8.152,60.268,10.138,63.86,12.075z M29.122,37.994
					c3.419-1.102,6.386-2.516,9.058-4.133c0.028,0.016,0.049,0.035,0.082,0.052c1.502,0.793,3.025,1.566,4.578,2.323
					c0.386,0.188,0.771,0.375,1.159,0.56c0.337,0.163,0.677,0.324,1.02,0.484c0.048,0.024,0.094,0.047,0.146,0.069
					c0.028,0.013,0.051,0.022,0.079,0.036c0.257,0.119,0.513,0.239,0.768,0.358c0.257,0.12,0.519,0.24,0.776,0.357
					c0.146,0.066,0.289,0.131,0.434,0.198c0.4,0.181,0.805,0.361,1.205,0.54c-0.02,0.015-0.04,0.023-0.059,0.038
					c-2.26,1.734-4.88,3.272-7.795,4.595c-0.504-0.21-1.005-0.423-1.499-0.638c-0.495-0.216-0.987-0.429-1.475-0.647
					c-0.843-0.379-1.671-0.763-2.496-1.154c-0.169-0.081-0.34-0.161-0.509-0.242c-0.365-0.175-0.728-0.354-1.092-0.532
					c-0.055-0.028-0.11-0.052-0.164-0.08c-0.143-0.069-0.279-0.137-0.437-0.218c-0.291-0.144-0.583-0.29-0.87-0.436
					c-0.092-0.046-0.176-0.092-0.268-0.137c-0.428-0.219-0.852-0.439-1.274-0.662C30.029,38.482,29.575,38.242,29.122,37.994z
					 M33.218,27.108c2.374,1.256,4.75,2.512,7.122,3.769c-2.382,1.693-4.984,3.256-7.896,4.573c-1.71-0.939-3.424-1.876-5.138-2.816
					C29.599,30.917,31.583,29.067,33.218,27.108z M45.76,26.578c-0.366,0.32-0.746,0.641-1.122,0.959
					c-0.042,0.036-0.082,0.068-0.157,0.13c-0.25,0.21-0.501,0.419-0.756,0.625c-0.03,0.024-0.058,0.048-0.088,0.072
					c-0.176,0.141-0.348,0.282-0.525,0.422c-0.176,0.141-0.352,0.28-0.533,0.42c-0.386,0.304-0.777,0.603-1.177,0.9
					c-2.475-1.31-4.954-2.621-7.429-3.932c0.895-1.172,1.672-2.376,2.314-3.612c0.313,0.155,0.627,0.307,0.946,0.459
					c0.042,0.021,0.088,0.04,0.13,0.061l0.11,0.053c0.361,0.17,0.722,0.336,1.088,0.503c0.385,0.177,0.774,0.348,1.165,0.519
					c0.327,0.144,0.661,0.286,1.037,0.444c0.3,0.128,0.604,0.255,0.91,0.378c0.049,0.021,0.094,0.04,0.142,0.058
					c0.255,0.105,0.51,0.211,0.802,0.326c0.082,0.033,0.16,0.065,0.243,0.098c0.045,0.02,0.093,0.037,0.142,0.055
					c0.264,0.107,0.531,0.212,0.8,0.315c0.243,0.095,0.485,0.189,0.726,0.281C44.938,26.268,45.348,26.424,45.76,26.578z
					 M52.94,21.788c4.014,1.932,8.297,3.642,12.81,5.119c-1.776,1.25-3.556,2.5-5.336,3.753c-0.072,0.053-0.124,0.106-0.153,0.163
					c-2.758-1.13-5.625-2.183-8.494-3.216c-1.237-0.445-2.475-0.89-3.709-1.34C49.701,24.786,51.301,23.276,52.94,21.788z
					 M56.705,18.49c0.236-0.199,0.481-0.397,0.725-0.594c0.243-0.195,0.485-0.392,0.731-0.586c2.266,1.027,4.737,1.877,7.574,2.386
					c2.447,0.44,5.057,0.637,7.583,0.442c-0.104,0.241-0.228,0.478-0.37,0.711c-0.07,0.117-0.146,0.231-0.227,0.345
					c-0.076,0.113-0.162,0.227-0.25,0.336c-0.072,0.099-0.154,0.194-0.258,0.311c-0.082,0.096-0.163,0.189-0.251,0.281
					c-0.061,0.067-0.128,0.133-0.194,0.2c-0.134,0.137-0.273,0.272-0.419,0.406c-0.039,0.037-0.075,0.071-0.112,0.106
					c-0.061,0.056-0.121,0.113-0.186,0.167c-0.018,0.014-0.035,0.031-0.054,0.046c-0.056,0.049-0.108,0.098-0.171,0.146
					c-0.074,0.068-0.157,0.137-0.242,0.203c-0.045,0.04-0.094,0.079-0.145,0.119c-0.119,0.096-0.237,0.192-0.358,0.288
					c-0.151,0.115-0.304,0.23-0.488,0.369c-0.225,0.167-0.452,0.334-0.683,0.503c-0.24,0.173-0.482,0.344-0.729,0.518
					c-0.448,0.315-0.9,0.633-1.346,0.949c-4.584-1.49-8.931-3.223-12.977-5.184c0.373-0.334,0.745-0.666,1.127-1.002
					c0.15-0.131,0.301-0.262,0.453-0.391c0.176-0.153,0.352-0.309,0.533-0.459c0.024-0.024,0.052-0.047,0.082-0.068
					C56.268,18.854,56.486,18.673,56.705,18.49z"/>
			</g>
		</g>
		<g>
			<path fill="#E95B3B" d="M31.764,36.124l0.385,0.03c0.372,0.03,4.16-0.71,8.916-4.537c0.434-0.357,9.807-8.066,11.927-9.854
				l13.715,5.544l0.383-0.203c6.862-3.657,7.756-6.813,7.791-6.945l0.093-0.354l-0.608-0.066c-0.149-0.017-3.225-0.354-5.187-0.51
				l1.161-1.97c0.113-0.193-0.066-0.405-0.402-0.471c-0.336-0.066-0.702,0.038-0.816,0.232l-1.678,2.845l0.807,0.047
				c1.291,0.074,3.971,0.352,5.214,0.484c-0.423,0.87-1.958,3.262-6.87,5.957l-13.947-5.637l-0.361,0.323
				c-0.828,0.734-12.156,10.053-12.269,10.147c-3.718,2.991-6.689,3.932-7.614,4.168l-2.231-1.288l1.834-1.06
				c0.251-0.145,0.251-0.38,0-0.525c-0.251-0.145-0.659-0.145-0.91,0l-2.744,1.585l3.329,1.922L31.764,36.124z"/>
		</g>
	</g>
	
		<linearGradient id="SVGID_1_" gradientUnits="userSpaceOnUse" x1="3.3965" y1="28.0718" x2="2.4244" y2="10.2095" gradientTransform="matrix(-1 0 0 1 61.8721 0)">
		<stop  offset="0" style="stop-color:#1B1919"/>
		<stop  offset="1" style="stop-color:#4A768F"/>
	</linearGradient>
	<path fill="url(#SVGID_1_)" d="M28.027,20.37l0.623,0.004l60.872,0.44c0.215-0.266,0.291-0.554,0.232-0.837
		c0.096-0.459-0.163-0.94-0.775-1.294L61.88,3.038c-1.056-0.609-2.779-0.609-3.839,0.004L28.027,20.37z"/>
	<g>
		<path fill="#D4DBDC" d="M20.444,38.938l-2.593,1.497c-0.716,0.413-0.716,1.084,0,1.497l2.593,1.498
			c0.422,0.243,1.006,0.344,1.556,0.299c0.378-0.03,0.744-0.13,1.037-0.299l2.593-1.498c0.716-0.413,0.716-1.084,0-1.497
			l-2.593-1.497c-0.293-0.17-0.659-0.27-1.037-0.3C21.45,38.593,20.866,38.693,20.444,38.938z"/>
		<path fill="#E4E9E6" d="M20.663,39.236l-2.593,1.498c-0.715,0.413-0.715,1.084,0,1.497l2.593,1.497
			c0.293,0.17,0.659,0.27,1.038,0.3c0.378-0.03,0.744-0.13,1.037-0.3l2.593-1.497c0.716-0.413,0.716-1.084,0-1.497l-2.593-1.498
			c-0.293-0.169-0.659-0.269-1.037-0.299C21.321,38.968,20.956,39.067,20.663,39.236z"/>
	</g>
	<g>
		<path fill="#A3B0B9" d="M83.024,28.173c-0.058,0.01-0.121,0.034-0.186,0.071l-3.771,2.202c-0.299,0.171-0.542,0.594-0.542,0.94
			c-0.002,0.087,0.011,0.152,0.031,0.208c0.077,0.195,0.276,0.251,0.512,0.116l3.769-2.201c0.3-0.173,0.544-0.594,0.543-0.939
			C83.38,28.286,83.231,28.142,83.024,28.173z"/>
		<path fill="#BBC5CB" d="M83.024,28.173c-0.058,0.01-0.121,0.034-0.186,0.071l-3.771,2.202c-0.299,0.171-0.542,0.594-0.542,0.94
			c-0.002,0.087,0.011,0.152,0.031,0.208c0.061-0.009,0.122-0.031,0.188-0.071l3.77-2.2c0.301-0.173,0.544-0.595,0.543-0.939
			C83.057,28.294,83.045,28.229,83.024,28.173z"/>
	</g>
	<g>
		<path fill="#BBC5CB" d="M71.762,7.576c0.037,0.045,0.09,0.087,0.154,0.124l8.082,4.667c0.299,0.174,0.785,0.174,1.086,0
			c0.076-0.044,0.127-0.086,0.164-0.132c0.131-0.164,0.08-0.364-0.155-0.501l-8.079-4.666c-0.301-0.173-0.787-0.173-1.086,0
			C71.682,7.21,71.632,7.412,71.762,7.576z"/>
		<path fill="#D4DBDC" d="M71.762,7.576c0.037,0.045,0.09,0.087,0.154,0.124l8.082,4.667c0.299,0.174,0.785,0.174,1.086,0
			c0.076-0.044,0.127-0.086,0.164-0.132c-0.037-0.047-0.088-0.09-0.155-0.128l-8.079-4.666c-0.301-0.174-0.787-0.174-1.086,0
			C71.85,7.486,71.799,7.529,71.762,7.576z"/>
	</g>
	<g>
		<path fill="#A3B0B9" d="M15.221,44.478l4.943,2.856c0.186,0.107,0.343,0.08,0.425-0.044c0.058-0.086,0.079-0.222,0.046-0.389
			l-0.242-0.92c-0.055-0.279-0.249-0.563-0.47-0.691l-4.461-2.579c-0.019-0.01-0.037-0.021-0.054-0.028
			c-0.199-0.087-0.365-0.021-0.416,0.178l-0.242,0.641C14.669,43.813,14.902,44.293,15.221,44.478z"/>
		<path fill="#BBC5CB" d="M15.592,44.405l4.944,2.856c0.019,0.011,0.036,0.022,0.05,0.029c0.059-0.088,0.081-0.223,0.048-0.39
			l-0.098-0.371l-0.142-0.551c-0.059-0.276-0.252-0.561-0.47-0.688L16.51,43.32l-1.049-0.608c-0.019-0.011-0.037-0.021-0.055-0.029
			c-0.017,0.029-0.032,0.066-0.043,0.106l-0.241,0.641C15.039,43.74,15.271,44.224,15.592,44.405z"/>
		<path fill="#85929C" d="M16.93,44.442l3.606,2.088l-0.142-0.551c-0.059-0.276-0.252-0.561-0.47-0.688L16.51,43.32l-0.054,0.146
			C16.375,43.775,16.609,44.257,16.93,44.442z"/>
	</g>
	<polygon opacity="0.3" fill="#BBC5CB" points="70.993,19.089 60.752,19.089 52.829,15.041 60.135,10.33 71.441,10.776 	"/>
	<g>
		<g>
			<g>
				<g enable-background="new    ">
					<g>
						<polygon fill="#C38455" points="70.967,9.923 62.653,5.091 62.679,14.257 70.993,19.089 						"/>
					</g>
					<g>
						<polygon fill="#FFE3BD" points="62.653,5.089 70.967,9.921 74.59,7.829 75.606,7.244 78.944,5.315 70.629,0.485 67.263,2.429 
							66.25,3.014 						"/>
					</g>
					<g>
						<polygon fill="#DF9D70" points="70.967,9.923 70.993,19.089 78.969,14.483 78.944,5.317 						"/>
					</g>
				</g>
			</g>
			<polygon fill="#E95B3B" points="66.25,3.014 74.59,7.829 75.606,7.244 67.263,2.429 			"/>
			<polygon fill="#BC5B30" points="75.606,7.25 74.592,7.835 74.592,12.245 75.606,11.66 			"/>
		</g>
		<g>
			<g>
				<path fill="#C38455" d="M69.042,15.675c0.032,0.006,0.067,0.021,0.104,0.042c0.126,0.07,0.234,0.217,0.286,0.368
					c0.054-0.091,0.162-0.111,0.286-0.039c0.126,0.074,0.235,0.218,0.287,0.37c0.054-0.091,0.162-0.11,0.286-0.039
					c0.037,0.021,0.072,0.05,0.105,0.082c-0.075-0.396-0.352-0.814-0.679-1.004C69.392,15.267,69.118,15.367,69.042,15.675z"/>
				<g>
					<path fill="#C38455" d="M69.616,17.43c0.103,0.059,0.146-0.006,0.151-0.063V15.94c0-0.03-0.021-0.066-0.048-0.082
						c-0.047,0.027-0.047,1.447-0.047,1.447c-0.002,0.013-0.012,0.039-0.057,0.014c-0.051-0.028-0.055-0.106-0.055-0.109
						c-0.003-0.032-0.026-0.067-0.053-0.079C69.469,17.228,69.506,17.366,69.616,17.43z"/>
				</g>
			</g>
			<g>
				<g>
					<path fill="#C38455" d="M68.099,15.611l0.104,0.061c0.207,0.12,0.377,0.023,0.377-0.217v-0.602l-0.857-0.494v0.601
						C67.723,15.2,67.891,15.491,68.099,15.611z"/>
				</g>
				<g>
					<polygon fill="#C38455" points="68.104,16.519 68.2,16.574 68.2,15.576 68.104,15.521 					"/>
				</g>
				<g>
					<path fill="#C38455" d="M67.873,16.441l0.558,0.322c0.049-0.06,0.027-0.097,0-0.112l-0.558-0.322
						C67.823,16.389,67.846,16.426,67.873,16.441z"/>
				</g>
			</g>
			<g>
				<g>
					<path fill="#C38455" d="M65.422,14.997c-0.021-0.052-0.021-0.102,0-0.131l0.869-1.236c0.04-0.058,0.156,0.009,0.197,0.114
						l0.868,2.24c0.021,0.053,0.021,0.103,0,0.131c-0.021,0.029-0.058,0.033-0.099,0.009l-1.736-1.002
						C65.479,15.097,65.442,15.051,65.422,14.997z M66.375,13.735c0,0-0.87,1.234-0.854,1.273c0,0,1.736,1.004,1.751,0.982
						c0,0-0.868-2.238-0.884-2.258C66.387,13.731,66.379,13.729,66.375,13.735z"/>
				</g>
				<g>
					<path fill="#C38455" d="M66.458,15.041l-0.123-0.069l-0.01-0.22v-0.613l0.143,0.083v0.614L66.458,15.041z M66.325,15.237
						v-0.166l0.143,0.082v0.166L66.325,15.237z"/>
				</g>
			</g>
		</g>
		<g>
			<polygon fill="#EBEAE2" points="66.582,11.429 69.812,13.293 69.812,10.892 66.582,9.025 			"/>
			<g>
				<g>
					<path fill="#754C45" d="M67.291,11.383l1.813,1.047c0.035,0.021,0.064,0.005,0.064-0.037c0-0.041-0.029-0.091-0.064-0.111
						l-1.813-1.047c-0.036-0.021-0.065-0.005-0.065,0.036C67.225,11.313,67.254,11.362,67.291,11.383z"/>
				</g>
				<g>
					<path fill="#754C45" d="M67.291,10.936l1.813,1.047c0.035,0.02,0.064,0.004,0.064-0.038c0-0.04-0.029-0.091-0.064-0.111
						l-1.813-1.047c-0.036-0.021-0.065-0.004-0.065,0.036C67.225,10.864,67.254,10.915,67.291,10.936z"/>
				</g>
				<g>
					<path fill="#754C45" d="M67.291,10.487l1.813,1.047c0.035,0.021,0.064,0.005,0.064-0.037c0-0.041-0.029-0.091-0.064-0.111
						l-1.813-1.047c-0.036-0.021-0.065-0.005-0.065,0.037C67.225,10.417,67.254,10.467,67.291,10.487z"/>
				</g>
				<g>
					<path fill="#754C45" d="M67.291,10.04l1.813,1.047c0.035,0.021,0.064,0.004,0.064-0.038c0-0.04-0.029-0.091-0.064-0.11
						l-1.813-1.048c-0.036-0.021-0.065-0.004-0.065,0.038C67.225,9.969,67.254,10.02,67.291,10.04z"/>
				</g>
			</g>
		</g>
	</g>
	<path opacity="0.3" fill="#BBC5CB" d="M32.601,33.155c0,0-12.595,0.834-13.935,0.799c-5.957-0.153-4.246-7.107-0.229-6.932
		C24.138,27.273,32.601,33.155,32.601,33.155L32.601,33.155z"/>
	<g>
		<g enable-background="new    ">
			<g>
				<path fill="#BB2F36" d="M32.672,16.375c-0.001-0.052-0.004-0.1-0.009-0.148c-0.004-0.052-0.009-0.102-0.016-0.151
					c-0.006-0.052-0.014-0.102-0.022-0.15c-0.009-0.053-0.02-0.103-0.031-0.152c-0.012-0.057-0.026-0.109-0.041-0.161
					c-0.018-0.057-0.035-0.111-0.055-0.166c-0.023-0.062-0.048-0.12-0.076-0.178c-0.035-0.075-0.075-0.147-0.118-0.215
					c-0.146-0.227-0.328-0.406-0.543-0.529l2.34,1.359c0.213,0.125,0.397,0.303,0.543,0.53c0.042,0.068,0.083,0.139,0.118,0.215
					c0.028,0.057,0.053,0.116,0.075,0.179c0.021,0.053,0.038,0.108,0.056,0.164c0.015,0.052,0.028,0.106,0.042,0.161
					c0.012,0.05,0.022,0.102,0.031,0.152c0.009,0.05,0.016,0.101,0.022,0.15s0.012,0.1,0.016,0.151
					c0.003,0.049,0.007,0.099,0.009,0.148s0.003,0.101,0.003,0.151c0.001,0.057,0,0.104-0.001,0.15
					c-0.001,0.052-0.003,0.102-0.007,0.151c-0.003,0.052-0.007,0.102-0.012,0.153s-0.01,0.102-0.016,0.152
					c-0.007,0.054-0.015,0.104-0.023,0.158c-0.007,0.053-0.018,0.105-0.026,0.158c-0.011,0.055-0.022,0.109-0.034,0.163
					c-0.012,0.055-0.025,0.109-0.038,0.164c-0.013,0.056-0.028,0.111-0.044,0.166c-0.014,0.056-0.031,0.11-0.047,0.166
					c-0.018,0.055-0.034,0.107-0.053,0.162c-0.018,0.053-0.037,0.105-0.056,0.16c-0.018,0.05-0.037,0.102-0.057,0.153
					c-0.02,0.05-0.04,0.102-0.061,0.151c-0.022,0.05-0.042,0.1-0.064,0.15l-2.341-1.359c0.022-0.051,0.044-0.101,0.065-0.15
					c0.021-0.052,0.041-0.102,0.062-0.153c0.02-0.05,0.039-0.102,0.058-0.152c0.019-0.054,0.037-0.106,0.054-0.161
					c0.019-0.053,0.037-0.107,0.053-0.161c0.016-0.055,0.032-0.11,0.048-0.165c0.015-0.056,0.029-0.11,0.042-0.166
					c0.015-0.055,0.027-0.109,0.039-0.165c0.012-0.055,0.023-0.108,0.034-0.163c0.01-0.053,0.019-0.106,0.026-0.157
					c0.009-0.053,0.017-0.106,0.024-0.158c0.006-0.051,0.012-0.103,0.016-0.152c0.006-0.052,0.009-0.104,0.013-0.153
					c0.003-0.052,0.004-0.102,0.006-0.151c0.001-0.047,0.003-0.094,0.003-0.142C32.675,16.476,32.675,16.424,32.672,16.375z"/>
				<path fill="#BB2F36" d="M31.5,20.038c0.081-0.122,0.159-0.245,0.234-0.372l2.34,1.359c-0.075,0.126-0.153,0.251-0.234,0.372
					c-0.064,0.098-0.131,0.191-0.199,0.282l-2.34-1.359C31.371,20.228,31.435,20.134,31.5,20.038z"/>
				<g>
					<path fill="#BB2F36" d="M31.89,19.39c0.032-0.062,0.065-0.125,0.096-0.187c0.028-0.057,0.054-0.111,0.08-0.165
						c0.023-0.05,0.047-0.102,0.069-0.151l2.341,1.359c-0.022,0.051-0.046,0.101-0.069,0.151c-0.026,0.056-0.053,0.11-0.08,0.164
						c-0.031,0.063-0.063,0.125-0.097,0.188c-0.05,0.094-0.101,0.186-0.154,0.276l-2.34-1.359
						C31.787,19.575,31.84,19.482,31.89,19.39z"/>
					<path fill="#BB2F36" d="M30.92,20.794c0.041-0.047,0.082-0.094,0.122-0.143c0.04-0.048,0.081-0.099,0.121-0.148
						c0.047-0.059,0.093-0.12,0.138-0.183l2.34,1.359c-0.045,0.063-0.092,0.124-0.14,0.185c-0.04,0.05-0.08,0.1-0.121,0.148
						c-0.04,0.047-0.08,0.096-0.121,0.141c-0.04,0.046-0.081,0.092-0.122,0.136l-2.34-1.359C30.839,20.886,30.88,20.84,30.92,20.794
						z"/>
				</g>
				<path fill="#BB2F36" d="M29.58,21.932c0.044-0.026,0.088-0.055,0.132-0.083c0.046-0.027,0.09-0.057,0.134-0.088
					c0.046-0.031,0.091-0.063,0.137-0.097c0.045-0.034,0.091-0.069,0.137-0.104c0.047-0.037,0.094-0.075,0.14-0.115
					c0.047-0.039,0.094-0.079,0.14-0.12c0.047-0.043,0.093-0.086,0.138-0.13c0.044-0.043,0.088-0.085,0.132-0.131
					c0.043-0.044,0.087-0.088,0.128-0.134l2.34,1.359c-0.042,0.046-0.085,0.091-0.128,0.135c-0.044,0.045-0.088,0.089-0.132,0.132
					c-0.046,0.044-0.091,0.086-0.138,0.128c-0.046,0.041-0.093,0.082-0.14,0.122c-0.045,0.038-0.092,0.076-0.14,0.113
					c-0.046,0.036-0.091,0.071-0.138,0.105c-0.044,0.032-0.09,0.064-0.135,0.097c-0.044,0.03-0.09,0.06-0.134,0.089
					c-0.044,0.028-0.088,0.055-0.133,0.081c-0.031,0.018-2.371-1.342-2.371-1.342C29.56,21.943,29.57,21.938,29.58,21.932z"/>
			</g>
			<path fill="#BB2F36" d="M27.316,22.167c0.075,0.044,0.156,0.081,0.239,0.111c0.062,0.022,0.127,0.04,0.191,0.055
				c0.115,0.026,0.193,0.035,0.273,0.041c0.126,0.005,0.206,0.005,0.287-0.003c0.115-0.01,0.202-0.023,0.29-0.042
				c0.118-0.027,0.208-0.052,0.303-0.084c0.118-0.04,0.216-0.08,0.318-0.125c0.122-0.058,0.225-0.11,0.331-0.171l2.34,1.359
				c-0.034,0.019-0.067,0.038-0.1,0.056c-0.042,0.023-0.086,0.046-0.129,0.066c-0.026,0.015-0.055,0.026-0.082,0.039
				c-0.085,0.04-0.128,0.058-0.169,0.074c-0.043,0.018-0.085,0.033-0.126,0.048c-0.069,0.022-0.099,0.033-0.126,0.042
				c-0.043,0.013-0.087,0.024-0.129,0.035c-0.175,0.038-0.221,0.046-0.267,0.052c-0.028,0.003-0.054,0.006-0.082,0.009
				c-0.107,0.009-0.156,0.01-0.205,0.01c-0.225-0.013-0.286-0.021-0.344-0.034c-0.102-0.024-0.162-0.039-0.219-0.06
				c-0.097-0.037-0.178-0.073-0.254-0.118L27.316,22.167z"/>
			<path fill="#BB2F36" d="M23.892,21.354c0.003-0.091,0.007-0.182,0.013-0.273c0.006-0.091,0.013-0.183,0.022-0.275
				c0.009-0.091,0.019-0.184,0.031-0.276c0.012-0.094,0.025-0.189,0.04-0.283c0.015-0.096,0.033-0.19,0.05-0.286
				c0.018-0.099,0.038-0.197,0.059-0.294c0.022-0.099,0.046-0.198,0.069-0.297c0.025-0.099,0.052-0.199,0.08-0.299
				c0.028-0.101,0.056-0.2,0.087-0.299c0.029-0.099,0.062-0.195,0.094-0.293c0.032-0.096,0.064-0.19,0.1-0.288
				c0.034-0.091,0.068-0.184,0.104-0.276c0.035-0.091,0.072-0.183,0.11-0.273c0.037-0.092,0.075-0.182,0.115-0.27
				c0.042-0.091,0.083-0.183,0.125-0.273c0.047-0.101,0.094-0.198,0.144-0.297c0.056-0.115,0.115-0.229,0.175-0.34
				c0.09-0.168,0.182-0.333,0.278-0.498c0.134-0.226,0.274-0.448,0.419-0.666c0.116-0.174,0.235-0.344,0.357-0.511
				c0.083-0.111,0.167-0.221,0.251-0.329c0.072-0.091,0.144-0.181,0.218-0.27c0.072-0.087,0.145-0.172,0.218-0.256
				c0.074-0.082,0.146-0.163,0.221-0.242c0.077-0.083,0.153-0.164,0.231-0.243c0.078-0.079,0.157-0.159,0.238-0.235
				c0.083-0.079,0.165-0.156,0.249-0.231c0.083-0.074,0.167-0.148,0.25-0.219c0.084-0.07,0.168-0.139,0.252-0.206
				c0.082-0.064,0.165-0.128,0.249-0.188c0.081-0.061,0.163-0.117,0.246-0.175c0.08-0.055,0.159-0.107,0.24-0.159
				c0.08-0.05,0.159-0.098,0.24-0.146c0.115-0.067,0.175-0.102,0.235-0.134c0.022-0.012,0.044-0.021,0.068-0.035
				c0.029-0.015,0.06-0.031,0.091-0.047c0.024-0.012,0.049-0.025,0.072-0.037c0.039-0.019,0.077-0.035,0.113-0.055
				c0.028-0.012,0.055-0.024,0.083-0.038c0.109-0.048,0.184-0.081,0.259-0.11c0.078-0.032,0.153-0.06,0.228-0.086
				c0.057-0.02,0.084-0.028,0.112-0.037c0.038-0.012,0.077-0.025,0.115-0.037c0.09-0.025,0.124-0.035,0.156-0.044
				c0.026-0.006,0.052-0.015,0.078-0.021s0.053-0.012,0.08-0.018c0.032-0.008,0.066-0.015,0.099-0.022
				c0.083-0.018,0.114-0.021,0.146-0.026c0.038-0.007,0.076-0.014,0.115-0.02c0.072-0.012,0.103-0.013,0.134-0.016
				c0.041-0.005,0.081-0.009,0.122-0.014c0.063-0.004,0.09-0.004,0.116-0.006c0.048-0.001,0.097-0.004,0.144-0.004
				c0.162,0.003,0.221,0.006,0.28,0.01c0.182,0.018,0.271,0.029,0.357,0.046c0.135,0.029,0.188,0.043,0.24,0.058
				c0.026,0.007,0.051,0.015,0.077,0.023c0.034,0.01,0.067,0.019,0.1,0.031c0.077,0.029,0.127,0.05,0.175,0.071
				c0.023,0.011,0.048,0.02,0.072,0.029c0.072,0.034,0.143,0.071,0.21,0.11l2.341,1.361c-0.069-0.041-0.14-0.076-0.212-0.11
				c-0.022-0.012-0.047-0.021-0.071-0.031c-0.05-0.022-0.099-0.042-0.15-0.06c-0.041-0.017-0.084-0.03-0.125-0.043
				c-0.026-0.008-0.05-0.017-0.077-0.023c-0.051-0.015-0.106-0.028-0.159-0.04c-0.168-0.034-0.256-0.046-0.346-0.055
				c-0.031-0.004-0.062-0.006-0.093-0.009c-0.059-0.004-0.118-0.007-0.178-0.009c-0.034,0-0.068-0.001-0.102-0.001
				c-0.047,0.001-0.096,0.003-0.145,0.004c-0.038,0.003-0.078,0.005-0.116,0.008c-0.041,0.003-0.083,0.007-0.122,0.012
				c-0.045,0.006-0.09,0.01-0.134,0.016c-0.038,0.006-0.077,0.014-0.115,0.02c-0.048,0.009-0.097,0.018-0.146,0.026
				c-0.032,0.007-0.066,0.015-0.1,0.022c-0.051,0.013-0.103,0.024-0.156,0.039c-0.033,0.009-0.066,0.018-0.1,0.028
				c-0.058,0.017-0.115,0.034-0.172,0.053c-0.026,0.009-0.054,0.018-0.081,0.026c-0.085,0.029-0.169,0.061-0.256,0.095
				c-0.088,0.036-0.175,0.073-0.262,0.113c-0.026,0.012-0.053,0.024-0.081,0.038c-0.062,0.029-0.124,0.059-0.185,0.091
				c-0.031,0.015-0.062,0.031-0.093,0.047c-0.081,0.043-0.163,0.089-0.247,0.136c-0.135,0.079-0.215,0.128-0.294,0.18
				c-0.081,0.052-0.16,0.104-0.24,0.158c-0.083,0.057-0.165,0.113-0.246,0.174c-0.084,0.062-0.167,0.125-0.249,0.189
				c-0.084,0.066-0.168,0.136-0.251,0.205c-0.084,0.072-0.168,0.146-0.251,0.219c-0.083,0.077-0.167,0.153-0.248,0.231
				c-0.081,0.078-0.16,0.156-0.238,0.235c-0.078,0.079-0.156,0.16-0.231,0.242c-0.075,0.08-0.148,0.162-0.221,0.245
				c-0.073,0.083-0.146,0.169-0.217,0.254c-0.074,0.09-0.147,0.18-0.218,0.27c-0.085,0.108-0.169,0.219-0.251,0.331
				c-0.122,0.166-0.243,0.337-0.357,0.509c-0.146,0.218-0.285,0.441-0.419,0.668c-0.096,0.163-0.19,0.329-0.278,0.496
				c-0.06,0.113-0.119,0.227-0.175,0.339c-0.05,0.099-0.099,0.199-0.146,0.299c-0.042,0.09-0.084,0.181-0.124,0.272
				c-0.04,0.09-0.078,0.18-0.114,0.27c-0.039,0.091-0.075,0.182-0.112,0.274c-0.035,0.092-0.069,0.185-0.103,0.276
				c-0.036,0.096-0.069,0.191-0.1,0.289c-0.034,0.097-0.065,0.194-0.094,0.291c-0.031,0.1-0.059,0.198-0.087,0.299
				c-0.028,0.1-0.054,0.2-0.08,0.3c-0.025,0.099-0.047,0.197-0.069,0.296c-0.021,0.099-0.041,0.197-0.059,0.294
				c-0.019,0.096-0.035,0.191-0.05,0.287c-0.015,0.094-0.028,0.188-0.041,0.282c-0.01,0.093-0.021,0.186-0.03,0.278
				c-0.009,0.091-0.016,0.183-0.022,0.273s-0.01,0.183-0.013,0.273c-0.003,0.086-0.003,0.171-0.003,0.255
				c0,0.111,0.006,0.227,0.016,0.344c0.009,0.101,0.023,0.202,0.038,0.305c0.004,0.029,0.009,0.059,0.015,0.09
				c0.016,0.102,0.037,0.204,0.06,0.311c0.05,0.206,0.083,0.332,0.121,0.46c0.031,0.106,0.063,0.214,0.099,0.321
				c0.051,0.154,0.096,0.276,0.143,0.398c0.062,0.168,0.131,0.335,0.203,0.505c0.018,0.042,0.037,0.084,0.055,0.126
				c0.059,0.134,0.119,0.268,0.182,0.403c0.023,0.049,0.045,0.096,0.068,0.143c0.094,0.196,0.192,0.392,0.295,0.589
				c0.016,0.032,0.034,0.064,0.05,0.096c0.095,0.181,0.194,0.36,0.294,0.539c0.019,0.036,0.039,0.069,0.058,0.104
				c0.112,0.195,0.227,0.392,0.343,0.584c0.025,0.043,0.05,0.084,0.075,0.126c0.115,0.188,0.231,0.377,0.347,0.561
				c0.106,0.168,0.196,0.307,0.284,0.443c0.025,0.035,0.048,0.072,0.072,0.108c0.066,0.101,0.133,0.2,0.199,0.298
				c0.032,0.05,0.066,0.098,0.099,0.146c0.056,0.083,0.113,0.166,0.168,0.247c0.037,0.054,0.073,0.104,0.11,0.157
				c0.052,0.075,0.103,0.15,0.155,0.223c0.038,0.055,0.075,0.105,0.113,0.158c0.048,0.069,0.097,0.139,0.146,0.205
				c0.038,0.055,0.075,0.105,0.113,0.157c0.045,0.064,0.093,0.128,0.137,0.19c0.037,0.051,0.074,0.1,0.11,0.149
				c0.044,0.061,0.088,0.119,0.131,0.178c0.037,0.049,0.072,0.095,0.106,0.142c0.043,0.056,0.084,0.111,0.125,0.165
				c0.032,0.044,0.065,0.088,0.097,0.131c0.041,0.051,0.08,0.103,0.118,0.152c0.031,0.04,0.062,0.08,0.091,0.119
				c0.037,0.049,0.074,0.095,0.109,0.141c0.028,0.036,0.056,0.072,0.081,0.105c0.035,0.043,0.067,0.084,0.098,0.125
				c0.027,0.032,0.052,0.064,0.075,0.095c0.029,0.038,0.058,0.071,0.085,0.106c0.021,0.027,0.044,0.057,0.064,0.081
				c0.027,0.034,0.05,0.063,0.075,0.093c0.016,0.022,0.035,0.044,0.05,0.065c0.024,0.027,0.043,0.051,0.062,0.074
				c0.059,0.074,0.075,0.093,0.091,0.11c0.063,0.078-2.277-1.281-2.277-1.281c-0.08-0.097-0.094-0.116-0.115-0.14
				c-0.059-0.073-0.078-0.097-0.1-0.125c-0.016-0.019-0.034-0.041-0.05-0.062c-0.025-0.031-0.05-0.062-0.078-0.098
				c-0.019-0.023-0.04-0.05-0.06-0.074c-0.03-0.037-0.058-0.072-0.088-0.11c-0.025-0.033-0.05-0.065-0.077-0.098
				c-0.031-0.039-0.062-0.079-0.094-0.122c-0.028-0.033-0.056-0.07-0.084-0.107c-0.035-0.045-0.072-0.091-0.108-0.14
				c-0.03-0.038-0.061-0.078-0.091-0.119c-0.039-0.05-0.077-0.1-0.116-0.153c-0.032-0.042-0.065-0.085-0.099-0.129
				c-0.041-0.055-0.084-0.11-0.126-0.168c-0.034-0.046-0.068-0.091-0.102-0.137c-0.045-0.061-0.09-0.122-0.135-0.184
				c-0.036-0.048-0.071-0.096-0.107-0.145c-0.045-0.063-0.093-0.13-0.141-0.194c-0.037-0.051-0.072-0.102-0.11-0.152
				c-0.049-0.068-0.097-0.139-0.147-0.208c-0.037-0.053-0.073-0.104-0.112-0.157c-0.05-0.073-0.103-0.147-0.154-0.222
				c-0.037-0.054-0.072-0.104-0.109-0.159c-0.057-0.083-0.115-0.166-0.172-0.252c-0.031-0.047-0.063-0.093-0.096-0.141
				c-0.068-0.102-0.137-0.206-0.206-0.311c-0.021-0.032-0.042-0.063-0.063-0.096c-0.089-0.139-0.179-0.276-0.268-0.416
				c-0.132-0.211-0.25-0.399-0.365-0.589c-0.025-0.043-0.05-0.084-0.075-0.125c-0.116-0.194-0.231-0.389-0.343-0.585
				c-0.019-0.034-0.037-0.068-0.056-0.102c-0.102-0.18-0.2-0.359-0.294-0.54c-0.018-0.032-0.035-0.065-0.051-0.098
				c-0.103-0.195-0.202-0.393-0.296-0.588c-0.042-0.087-0.053-0.113-0.066-0.142c-0.065-0.135-0.125-0.271-0.184-0.404
				c-0.018-0.041-0.037-0.084-0.054-0.125c-0.072-0.169-0.141-0.339-0.203-0.505c-0.053-0.141-0.093-0.253-0.131-0.365
				c-0.043-0.132-0.074-0.227-0.102-0.32c-0.047-0.162-0.08-0.288-0.109-0.413c-0.04-0.171-0.059-0.259-0.073-0.345
				c-0.014-0.077-0.017-0.107-0.022-0.138c-0.006-0.043-0.013-0.087-0.019-0.13c-0.007-0.058-0.013-0.116-0.019-0.174
				c-0.004-0.057-0.009-0.113-0.012-0.169s-0.004-0.111-0.004-0.166C23.889,21.524,23.89,21.44,23.892,21.354z"/>
			<g>
				<path fill="#E73D34" d="M37.53,16.444c0.01,3.585-5.331,16.303-5.612,16.972c-0.284-0.343-5.678-6.862-5.688-10.447
					s2.511-7.953,5.631-9.755S37.52,12.859,37.53,16.444z M31.89,23.309c1.731-1,3.132-3.424,3.126-5.414
					c-0.004-1.991-1.414-2.793-3.146-1.793c-1.731,0.999-3.133,3.425-3.127,5.417C28.748,23.507,30.158,24.309,31.89,23.309
					L31.89,23.309z"/>
			</g>
		</g>
	</g>
	<g>
		<path fill="#BBC5CB" d="M86.534,27.412c0.168,0.169,0.438,0.184,0.738,0.007c0.506-0.29,0.915-1.001,0.915-1.585
			c0-0.308-0.114-0.521-0.295-0.607c0.108,0.113,0.172,0.289,0.172,0.519c0,0.584-0.409,1.295-0.917,1.587
			C86.912,27.469,86.696,27.489,86.534,27.412z"/>
		<path fill="#85929C" d="M86.356,26.892c0.508-0.258,0.916-0.969,0.916-1.552C86.767,25.599,86.356,26.308,86.356,26.892z"/>
		<path fill="#A3B0B9" d="M86.356,26.925c0.006,0.215,0.072,0.38,0.174,0.486c0.166,0.078,0.382,0.058,0.617-0.079
			c0.508-0.292,0.917-1.003,0.917-1.587c0-0.229-0.063-0.405-0.172-0.519c-0.168-0.077-0.384-0.06-0.62,0.079
			C87.272,25.923,86.864,26.634,86.356,26.925z"/>
	</g>
	<g>
		<path fill="#BBC5CB" d="M89.354,25.705c0.168,0.168,0.438,0.184,0.738,0.007c0.506-0.291,0.915-1.002,0.915-1.585
			c0-0.308-0.114-0.521-0.295-0.607c0.108,0.112,0.171,0.288,0.171,0.519c0,0.583-0.409,1.294-0.916,1.586
			C89.731,25.761,89.515,25.782,89.354,25.705z"/>
		<path fill="#85929C" d="M89.175,25.183c0.507-0.256,0.917-0.967,0.917-1.551C89.587,23.892,89.175,24.6,89.175,25.183z"/>
		<path fill="#A3B0B9" d="M89.175,25.218c0.007,0.214,0.072,0.379,0.175,0.485c0.165,0.079,0.381,0.058,0.617-0.079
			c0.507-0.292,0.916-1.003,0.916-1.586c0-0.23-0.063-0.406-0.171-0.519c-0.167-0.079-0.385-0.06-0.62,0.078
			C90.092,24.216,89.682,24.927,89.175,25.218z"/>
	</g>
</g>
</svg>
