<?xml version="1.0" encoding="utf-8"?>
<!-- Generator: Adobe Illustrator 16.0.0, SVG Export Plug-In . SVG Version: 6.00 Build 0)  -->
<!DOCTYPE svg PUBLIC "-//W3C//DTD SVG 1.1//EN" "http://www.w3.org/Graphics/SVG/1.1/DTD/svg11.dtd">
<svg version="1.1" xmlns="http://www.w3.org/2000/svg" xmlns:xlink="http://www.w3.org/1999/xlink" x="0px" y="0px" width="500px"
	 height="500px" viewBox="0 0 500 500" enable-background="new 0 0 500 500" xml:space="preserve">
<g id="group-objects">
	<circle id="circle" fill="#FFF5EC" cx="252.469" cy="247.273" r="181.496"/>
	<g id="moving-objects">
		<g>
			<path fill="#EDDCCE" d="M441.256,211.514c-3.053,0-5.537-2.484-5.537-5.538c0-3.054,2.484-5.539,5.537-5.539
				c3.055,0,5.539,2.484,5.539,5.539C446.795,209.029,444.311,211.514,441.256,211.514z M441.256,203.097
				c-1.586,0-2.877,1.291-2.877,2.878c0,1.587,1.291,2.878,2.877,2.878c1.588,0,2.879-1.291,2.879-2.878
				C444.135,204.388,442.844,203.097,441.256,203.097z"/>
		</g>
		<g>
			<path fill="#EDDCCE" d="M317.575,78.994c-3.053,0-5.537-2.484-5.537-5.539c0-3.054,2.484-5.538,5.537-5.538
				c3.055,0,5.539,2.484,5.539,5.538C323.114,76.51,320.63,78.994,317.575,78.994z M317.575,70.578
				c-1.586,0-2.877,1.291-2.877,2.878c0,1.587,1.291,2.878,2.877,2.878c1.587,0,2.879-1.291,2.879-2.878
				C320.454,71.869,319.162,70.578,317.575,70.578z"/>
		</g>
		<g>
			<path fill="#EDDCCE" d="M239.864,96.977c-3.054,0-5.539-2.484-5.539-5.538s2.484-5.538,5.539-5.538
				c3.053,0,5.538,2.484,5.538,5.538S242.917,96.977,239.864,96.977z M239.864,88.561c-1.587,0-2.878,1.291-2.878,2.878
				s1.291,2.878,2.878,2.878c1.586,0,2.877-1.291,2.877-2.878S241.451,88.561,239.864,88.561z"/>
		</g>
		<g>
			<path fill="#EDDCCE" d="M126.698,113.881c-3.053,0-5.538-2.484-5.538-5.538s2.484-5.538,5.538-5.538
				c3.054,0,5.539,2.484,5.539,5.538S129.752,113.881,126.698,113.881z M126.698,105.465c-1.586,0-2.878,1.291-2.878,2.878
				s1.292,2.878,2.878,2.878c1.587,0,2.878-1.292,2.878-2.878S128.286,105.465,126.698,105.465z"/>
		</g>
		<g>
			<path fill="#EDDCCE" d="M68.601,313.334c-3.054,0-5.539-2.484-5.539-5.537c0-3.054,2.484-5.538,5.539-5.538
				c3.054,0,5.538,2.484,5.538,5.538C74.139,310.85,71.655,313.334,68.601,313.334z M68.601,304.919
				c-1.587,0-2.878,1.291-2.878,2.878c0,1.586,1.291,2.877,2.878,2.877c1.586,0,2.878-1.291,2.878-2.877
				C71.479,306.21,70.188,304.919,68.601,304.919z"/>
		</g>
		<g>
			<path fill="#EDDCCE" d="M142.453,371.532c-3.054,0-5.538-2.484-5.538-5.538s2.484-5.538,5.538-5.538
				c3.054,0,5.539,2.484,5.539,5.538S145.507,371.532,142.453,371.532z M142.453,363.116c-1.587,0-2.878,1.291-2.878,2.878
				s1.291,2.878,2.878,2.878c1.587,0,2.878-1.291,2.878-2.878S144.04,363.116,142.453,363.116z"/>
		</g>
		<g>
			<path fill="#EDDCCE" d="M428.216,293.577c-3.054,0-5.538-2.484-5.538-5.538s2.484-5.538,5.538-5.538s5.537,2.484,5.537,5.538
				S431.27,293.577,428.216,293.577z M428.216,285.161c-1.587,0-2.878,1.291-2.878,2.878s1.291,2.879,2.878,2.879
				c1.586,0,2.878-1.292,2.878-2.879S429.802,285.161,428.216,285.161z"/>
		</g>
		<g>
			<path fill="#EDDCCE" d="M188.008,247.444c-3.054,0-5.538-2.484-5.538-5.539c0-3.053,2.484-5.538,5.538-5.538
				s5.538,2.484,5.538,5.538C193.546,244.96,191.062,247.444,188.008,247.444z M188.008,239.028c-1.587,0-2.878,1.291-2.878,2.877
				c0,1.587,1.291,2.878,2.878,2.878s2.878-1.291,2.878-2.878C190.886,240.319,189.595,239.028,188.008,239.028z"/>
		</g>
		<g>
			<path fill="#EDDCCE" d="M118.279,205.126c-3.054,0-5.538-2.484-5.538-5.539s2.484-5.538,5.538-5.538s5.538,2.484,5.538,5.538
				S121.333,205.126,118.279,205.126z M118.279,196.709c-1.587,0-2.878,1.292-2.878,2.878c0,1.587,1.291,2.878,2.878,2.878
				s2.878-1.291,2.878-2.878C121.157,198,119.866,196.709,118.279,196.709z"/>
		</g>
		<path fill="#EDDCCE" d="M184.725,82.636h-2.011v-2.01c0-0.735-0.595-1.33-1.33-1.33s-1.33,0.595-1.33,1.33v2.01h-2.011
			c-0.735,0-1.33,0.596-1.33,1.33c0,0.735,0.595,1.33,1.33,1.33h2.011v2.011c0,0.735,0.595,1.33,1.33,1.33s1.33-0.595,1.33-1.33
			v-2.011h2.011c0.735,0,1.33-0.595,1.33-1.33C186.055,83.232,185.46,82.636,184.725,82.636z"/>
		<path fill="#EDDCCE" d="M61.217,239.854h-2.011v-2.011c0-0.735-0.595-1.33-1.33-1.33c-0.734,0-1.33,0.595-1.33,1.33v2.011h-2.011
			c-0.734,0-1.33,0.595-1.33,1.33c0,0.735,0.595,1.33,1.33,1.33h2.011v2.011c0,0.735,0.596,1.33,1.33,1.33
			c0.735,0,1.33-0.595,1.33-1.33v-2.011h2.011c0.734,0,1.33-0.595,1.33-1.33C62.547,240.45,61.952,239.854,61.217,239.854z"/>
		<path fill="#EDDCCE" d="M378.659,364.938h-2.012v-2.011c0-0.734-0.595-1.33-1.33-1.33c-0.734,0-1.33,0.596-1.33,1.33v2.011h-2.01
			c-0.735,0-1.33,0.596-1.33,1.33c0,0.735,0.595,1.33,1.33,1.33h2.01v2.012c0,0.734,0.596,1.329,1.33,1.329
			c0.735,0,1.33-0.595,1.33-1.329v-2.012h2.012c0.734,0,1.33-0.595,1.33-1.33C379.989,365.534,379.394,364.938,378.659,364.938z"/>
		<path fill="#EDDCCE" d="M324.2,249.286h-2.011v-2.011c0-0.734-0.596-1.33-1.33-1.33c-0.735,0-1.33,0.596-1.33,1.33v2.011h-2.011
			c-0.734,0-1.33,0.595-1.33,1.33c0,0.734,0.596,1.33,1.33,1.33h2.011v2.011c0,0.735,0.595,1.33,1.33,1.33
			c0.734,0,1.33-0.595,1.33-1.33v-2.011h2.011c0.735,0,1.33-0.596,1.33-1.33C325.53,249.881,324.936,249.286,324.2,249.286z"/>
		<path fill="#EDDCCE" d="M123.656,255.197h-2.011v-2.011c0-0.734-0.595-1.33-1.33-1.33c-0.734,0-1.33,0.596-1.33,1.33v2.011h-2.01
			c-0.735,0-1.33,0.596-1.33,1.33s0.595,1.33,1.33,1.33h2.01v2.011c0,0.735,0.596,1.33,1.33,1.33c0.735,0,1.33-0.595,1.33-1.33
			v-2.011h2.011c0.735,0,1.33-0.596,1.33-1.33S124.391,255.197,123.656,255.197z"/>
		<path fill="#EDDCCE" d="M73.908,143.06h-2.011v-2.011c0-0.735-0.595-1.33-1.33-1.33s-1.33,0.595-1.33,1.33v2.011h-2.011
			c-0.734,0-1.33,0.595-1.33,1.33c0,0.735,0.596,1.33,1.33,1.33h2.011v2.011c0,0.735,0.595,1.33,1.33,1.33s1.33-0.595,1.33-1.33
			v-2.011h2.011c0.734,0,1.33-0.595,1.33-1.33C75.238,143.655,74.643,143.06,73.908,143.06z"/>
		<path fill="#EDDCCE" d="M287.073,106.852h-2.011v-2.01c0-0.735-0.596-1.33-1.33-1.33s-1.33,0.595-1.33,1.33v2.01h-2.011
			c-0.734,0-1.33,0.596-1.33,1.331c0,0.734,0.596,1.33,1.33,1.33h2.011v2.011c0,0.735,0.596,1.33,1.33,1.33s1.33-0.595,1.33-1.33
			v-2.011h2.011c0.735,0,1.33-0.595,1.33-1.33C288.403,107.447,287.809,106.852,287.073,106.852z"/>
		<path fill="#EDDCCE" d="M349.033,156.251h-2.011v-2.01c0-0.735-0.596-1.33-1.33-1.33s-1.33,0.595-1.33,1.33v2.01h-2.011
			c-0.734,0-1.33,0.596-1.33,1.33c0,0.735,0.596,1.33,1.33,1.33h2.011v2.011c0,0.735,0.596,1.33,1.33,1.33s1.33-0.595,1.33-1.33
			v-2.011h2.011c0.735,0,1.33-0.595,1.33-1.33C350.363,156.847,349.769,156.251,349.033,156.251z"/>
		<path fill="#EDDCCE" d="M432.86,109.626h-2.011v-2.011c0-0.734-0.596-1.33-1.33-1.33c-0.735,0-1.33,0.596-1.33,1.33v2.011h-2.011
			c-0.735,0-1.33,0.595-1.33,1.33s0.595,1.33,1.33,1.33h2.011v2.011c0,0.735,0.595,1.33,1.33,1.33c0.734,0,1.33-0.595,1.33-1.33
			v-2.011h2.011c0.734,0,1.33-0.595,1.33-1.33S433.595,109.626,432.86,109.626z"/>
	</g>
	<g id="lines">
		<g>
			<path fill="#FFFFFF" d="M366.524,98.556h-47.592c-1.801,0-3.261-1.46-3.261-3.261v-0.65c0-1.801,1.46-3.261,3.261-3.261h47.592
				c1.801,0,3.261,1.46,3.261,3.261v0.65C369.785,97.096,368.325,98.556,366.524,98.556z"/>
			<path fill="#FFFFFF" d="M366.524,112.953h-47.592c-1.801,0-3.261-1.46-3.261-3.261v-0.65c0-1.801,1.46-3.261,3.261-3.261h47.592
				c1.801,0,3.261,1.46,3.261,3.261v0.65C369.785,111.493,368.325,112.953,366.524,112.953z"/>
			<path fill="#FFFFFF" d="M400.321,126.441h-47.593c-1.801,0-3.261-1.46-3.261-3.261v-0.65c0-1.801,1.46-3.261,3.261-3.261h47.593
				c1.801,0,3.261,1.46,3.261,3.261v0.65C403.582,124.981,402.122,126.441,400.321,126.441z"/>
			<path fill="#FFFFFF" d="M400.321,140.839h-47.593c-1.801,0-3.261-1.46-3.261-3.261v-0.65c0-1.801,1.46-3.261,3.261-3.261h47.593
				c1.801,0,3.261,1.46,3.261,3.261v0.65C403.582,139.379,402.122,140.839,400.321,140.839z"/>
		</g>
		<g>
			<path fill="#FFFFFF" d="M119.749,136.784H79.833c-1.51,0-2.735-1.225-2.735-2.735v-0.545c0-1.511,1.225-2.735,2.735-2.735h39.916
				c1.51,0,2.735,1.224,2.735,2.735v0.545C122.483,135.559,121.259,136.784,119.749,136.784z"/>
			<path fill="#FFFFFF" d="M119.749,148.859H79.833c-1.51,0-2.735-1.225-2.735-2.735v-0.545c0-1.511,1.225-2.735,2.735-2.735h39.916
				c1.51,0,2.735,1.224,2.735,2.735v0.545C122.483,147.634,121.259,148.859,119.749,148.859z"/>
			<path fill="#FFFFFF" d="M148.093,160.171h-39.915c-1.511,0-2.735-1.225-2.735-2.735v-0.545c0-1.511,1.225-2.735,2.735-2.735
				h39.915c1.51,0,2.735,1.224,2.735,2.735v0.545C150.828,158.947,149.604,160.171,148.093,160.171z"/>
			<path fill="#FFFFFF" d="M148.093,172.247h-39.915c-1.511,0-2.735-1.225-2.735-2.735v-0.545c0-1.511,1.225-2.735,2.735-2.735
				h39.915c1.51,0,2.735,1.224,2.735,2.735v0.545C150.828,171.022,149.604,172.247,148.093,172.247z"/>
		</g>
		<g>
			<path fill="#FFFFFF" d="M391.822,305.407h-39.915c-1.511,0-2.735-1.225-2.735-2.734v-0.546c0-1.51,1.225-2.734,2.735-2.734
				h39.915c1.51,0,2.734,1.225,2.734,2.734v0.546C394.557,304.183,393.332,305.407,391.822,305.407z"/>
			<path fill="#FFFFFF" d="M391.822,317.482h-39.915c-1.511,0-2.735-1.225-2.735-2.734v-0.546c0-1.51,1.225-2.734,2.735-2.734
				h39.915c1.51,0,2.734,1.225,2.734,2.734v0.546C394.557,316.258,393.332,317.482,391.822,317.482z"/>
			<path fill="#FFFFFF" d="M420.167,328.795h-39.915c-1.511,0-2.735-1.225-2.735-2.734v-0.546c0-1.51,1.225-2.734,2.735-2.734
				h39.915c1.51,0,2.734,1.225,2.734,2.734v0.546C422.901,327.57,421.677,328.795,420.167,328.795z"/>
			<path fill="#FFFFFF" d="M420.167,340.87h-39.915c-1.511,0-2.735-1.225-2.735-2.734v-0.546c0-1.51,1.225-2.734,2.735-2.734h39.915
				c1.51,0,2.734,1.225,2.734,2.734v0.546C422.901,339.646,421.677,340.87,420.167,340.87z"/>
		</g>
	</g>
	<g id="dots">
		<g>
			<g>
				<path fill="#D2D2D2" d="M93.147,347.851c-1.381,0-2.525-1.119-2.525-2.5s1.094-2.5,2.475-2.5h0.05c1.381,0,2.5,1.119,2.5,2.5
					S94.528,347.851,93.147,347.851z"/>
			</g>
			<g>
				<path fill="#D2D2D2" d="M152.13,347.851c-1.381,0-2.549-1.119-2.549-2.5s1.07-2.5,2.451-2.5h0.098c1.381,0,2.5,1.119,2.5,2.5
					S153.511,347.851,152.13,347.851z M142.299,347.851c-1.381,0-2.548-1.119-2.548-2.5s1.07-2.5,2.451-2.5h0.097
					c1.381,0,2.5,1.119,2.5,2.5S143.68,347.851,142.299,347.851z M132.469,347.851c-1.381,0-2.549-1.119-2.549-2.5
					s1.071-2.5,2.452-2.5h0.097c1.381,0,2.5,1.119,2.5,2.5S133.85,347.851,132.469,347.851z M122.639,347.851
					c-1.381,0-2.549-1.119-2.549-2.5s1.07-2.5,2.451-2.5h0.098c1.381,0,2.5,1.119,2.5,2.5S124.02,347.851,122.639,347.851z
					 M112.808,347.851c-1.381,0-2.548-1.119-2.548-2.5s1.07-2.5,2.451-2.5h0.097c1.381,0,2.5,1.119,2.5,2.5
					S114.189,347.851,112.808,347.851z M102.978,347.851c-1.381,0-2.549-1.119-2.549-2.5s1.071-2.5,2.452-2.5h0.097
					c1.381,0,2.5,1.119,2.5,2.5S104.358,347.851,102.978,347.851z"/>
			</g>
			<g>
				<path fill="#D2D2D2" d="M161.913,347.851c-1.381,0-2.525-1.119-2.525-2.5s1.094-2.5,2.475-2.5h0.05c1.381,0,2.5,1.119,2.5,2.5
					S163.293,347.851,161.913,347.851z"/>
			</g>
		</g>
		<g>
			<g>
				<path fill="#D2D2D2" d="M381.658,179.545c-1.381,0-2.525-1.119-2.525-2.5s1.094-2.5,2.475-2.5h0.051c1.381,0,2.5,1.119,2.5,2.5
					S383.039,179.545,381.658,179.545z"/>
			</g>
			<g>
				<path fill="#D2D2D2" d="M440.641,179.545c-1.381,0-2.549-1.119-2.549-2.5s1.07-2.5,2.451-2.5h0.098c1.381,0,2.5,1.119,2.5,2.5
					S442.021,179.545,440.641,179.545z M430.811,179.545c-1.381,0-2.549-1.119-2.549-2.5s1.07-2.5,2.451-2.5h0.098
					c1.381,0,2.5,1.119,2.5,2.5S432.191,179.545,430.811,179.545z M420.98,179.545c-1.381,0-2.549-1.119-2.549-2.5
					s1.07-2.5,2.451-2.5h0.098c1.381,0,2.5,1.119,2.5,2.5S422.361,179.545,420.98,179.545z M411.148,179.545
					c-1.381,0-2.549-1.119-2.549-2.5s1.072-2.5,2.453-2.5h0.096c1.381,0,2.5,1.119,2.5,2.5S412.529,179.545,411.148,179.545z
					 M401.318,179.545c-1.381,0-2.549-1.119-2.549-2.5s1.07-2.5,2.451-2.5h0.098c1.381,0,2.5,1.119,2.5,2.5
					S402.699,179.545,401.318,179.545z M391.488,179.545c-1.381,0-2.549-1.119-2.549-2.5s1.07-2.5,2.451-2.5h0.098
					c1.381,0,2.5,1.119,2.5,2.5S392.869,179.545,391.488,179.545z"/>
			</g>
			<g>
				<path fill="#D2D2D2" d="M450.424,179.545c-1.381,0-2.525-1.119-2.525-2.5s1.094-2.5,2.475-2.5h0.051c1.381,0,2.5,1.119,2.5,2.5
					S451.805,179.545,450.424,179.545z"/>
			</g>
		</g>
		<g>
			<g>
				<path fill="#D2D2D2" d="M52.214,196.552c-1.381,0-2.525-1.119-2.525-2.5s1.094-2.5,2.475-2.5h0.05c1.381,0,2.5,1.119,2.5,2.5
					S53.595,196.552,52.214,196.552z"/>
			</g>
			<g>
				<path fill="#D2D2D2" d="M111.196,196.552c-1.381,0-2.549-1.119-2.549-2.5s1.07-2.5,2.451-2.5h0.098c1.381,0,2.5,1.119,2.5,2.5
					S112.577,196.552,111.196,196.552z M101.366,196.552c-1.381,0-2.549-1.119-2.549-2.5s1.071-2.5,2.452-2.5h0.097
					c1.381,0,2.5,1.119,2.5,2.5S102.747,196.552,101.366,196.552z M91.535,196.552c-1.381,0-2.549-1.119-2.549-2.5
					s1.071-2.5,2.452-2.5h0.097c1.381,0,2.5,1.119,2.5,2.5S92.916,196.552,91.535,196.552z M81.705,196.552
					c-1.381,0-2.549-1.119-2.549-2.5s1.07-2.5,2.451-2.5h0.098c1.381,0,2.5,1.119,2.5,2.5S83.086,196.552,81.705,196.552z
					 M71.875,196.552c-1.381,0-2.549-1.119-2.549-2.5s1.071-2.5,2.452-2.5h0.097c1.381,0,2.5,1.119,2.5,2.5
					S73.255,196.552,71.875,196.552z M62.044,196.552c-1.381,0-2.549-1.119-2.549-2.5s1.071-2.5,2.452-2.5h0.097
					c1.381,0,2.5,1.119,2.5,2.5S63.425,196.552,62.044,196.552z"/>
			</g>
			<g>
				<path fill="#D2D2D2" d="M120.979,196.552c-1.381,0-2.525-1.119-2.525-2.5s1.094-2.5,2.475-2.5h0.05c1.381,0,2.5,1.119,2.5,2.5
					S122.36,196.552,120.979,196.552z"/>
			</g>
		</g>
	</g>
</g>
<g id="relative-circle">
	<g id="techs">
		<path id="react_1_" fill="#61DAFB" d="M123.159,130.028L123.159,130.028c-0.481-0.166-0.967-0.318-1.457-0.459
			c0.081-0.33,0.156-0.662,0.225-0.994c1.103-5.356,0.382-9.671-2.082-11.091c-2.362-1.362-6.226,0.058-10.127,3.454
			c-0.384,0.335-0.76,0.68-1.127,1.034c-0.246-0.235-0.495-0.466-0.75-0.693c-4.089-3.631-8.188-5.16-10.649-3.736
			c-2.36,1.366-3.058,5.422-2.065,10.499c0.099,0.502,0.21,1.002,0.335,1.5c-0.58,0.165-1.14,0.34-1.676,0.527
			c-4.794,1.671-7.856,4.291-7.856,7.008c0,2.806,3.287,5.621,8.28,7.327c0.405,0.138,0.813,0.265,1.224,0.383
			c-0.134,0.535-0.252,1.075-0.355,1.617c-0.947,4.988-0.208,8.948,2.146,10.306c2.431,1.401,6.511-0.04,10.484-3.512
			c0.314-0.274,0.629-0.565,0.945-0.871c0.397,0.383,0.806,0.756,1.224,1.117c3.848,3.312,7.649,4.649,10,3.288
			c2.429-1.406,3.218-5.661,2.193-10.837c-0.078-0.396-0.169-0.799-0.272-1.21c0.287-0.084,0.567-0.172,0.842-0.263
			c5.19-1.72,8.568-4.5,8.568-7.344C131.209,134.349,128.049,131.712,123.159,130.028z M110.988,122.396
			c3.343-2.909,6.467-4.058,7.891-3.237l0,0c1.516,0.875,2.106,4.401,1.153,9.026c-0.063,0.301-0.13,0.601-0.204,0.9
			c-1.995-0.452-4.018-0.772-6.054-0.957c-1.167-1.676-2.446-3.272-3.828-4.777C110.286,123.025,110.633,122.707,110.988,122.396z
			 M99.299,139.397c0.41,0.791,0.837,1.572,1.284,2.343c0.456,0.786,0.93,1.561,1.421,2.325c-1.401-0.152-2.794-0.376-4.173-0.671
			C98.231,142.103,98.724,140.762,99.299,139.397z M99.297,134.848c-0.563-1.336-1.045-2.649-1.438-3.918
			c1.292-0.289,2.669-0.525,4.104-0.705c-0.48,0.749-0.943,1.509-1.388,2.281C100.131,133.276,99.705,134.057,99.297,134.848z
			 M100.325,137.123c0.596-1.241,1.238-2.458,1.926-3.65v0c0.688-1.192,1.419-2.357,2.195-3.496
			c1.347-0.102,2.727-0.155,4.123-0.155c1.402,0,2.785,0.054,4.13,0.156c0.768,1.135,1.496,2.296,2.182,3.483
			c0.69,1.189,1.341,2.4,1.952,3.633c-0.605,1.244-1.253,2.466-1.945,3.665h0c-0.686,1.191-1.41,2.359-2.172,3.505
			c-1.343,0.096-2.731,0.146-4.146,0.146c-1.409,0-2.779-0.044-4.1-0.129c-0.782-1.142-1.52-2.312-2.213-3.51
			C101.567,139.58,100.923,138.364,100.325,137.123L100.325,137.123z M116.564,141.727c0.456-0.79,0.894-1.59,1.313-2.399l0,0
			c0.576,1.3,1.083,2.63,1.521,3.983c-1.395,0.313-2.804,0.553-4.224,0.72C115.652,143.272,116.116,142.504,116.564,141.727
			L116.564,141.727z M117.859,134.849c-0.418-0.794-0.853-1.579-1.302-2.356l0,0c-0.443-0.765-0.902-1.52-1.377-2.265
			c1.445,0.183,2.829,0.425,4.128,0.722C118.891,132.273,118.407,133.575,117.859,134.849L117.859,134.849z M108.591,124.734
			c0.942,1.027,1.831,2.101,2.665,3.217c-1.783-0.084-3.566-0.084-5.352-0.001C106.784,126.791,107.686,125.712,108.591,124.734z
			 M98.161,119.217c1.515-0.877,4.865,0.373,8.396,3.508c0.226,0.201,0.452,0.41,0.679,0.627c-1.39,1.504-2.679,3.099-3.857,4.773
			c-2.032,0.183-4.051,0.496-6.042,0.939c-0.115-0.462-0.219-0.927-0.312-1.395v0C96.173,123.321,96.739,120.04,98.161,119.217z
			 M95.953,142.923c-0.375-0.108-0.748-0.225-1.117-0.35c-1.917-0.604-3.708-1.555-5.281-2.806c-0.911-0.625-1.523-1.599-1.69-2.692
			c0-1.648,2.458-3.751,6.558-5.181c0.515-0.178,1.034-0.342,1.559-0.49c0.609,1.953,1.346,3.863,2.207,5.719
			C97.316,139.005,96.569,140.943,95.953,142.923z M106.436,151.74c-1.48,1.36-3.199,2.435-5.069,3.173l0,0
			c-0.997,0.477-2.146,0.52-3.176,0.119c-1.428-0.824-2.022-4.003-1.212-8.269c0.096-0.504,0.207-1.005,0.331-1.503
			c2.012,0.432,4.05,0.727,6.102,0.883c1.189,1.684,2.487,3.289,3.887,4.803C107.017,151.217,106.729,151.482,106.436,151.74z
			 M108.645,149.554c-0.917-0.99-1.832-2.084-2.725-3.261c0.867,0.034,1.75,0.051,2.649,0.051c0.922,0,1.834-0.02,2.733-0.061
			C110.474,147.419,109.586,148.51,108.645,149.554L108.645,149.554z M120.391,152.245c-0.084,1.102-0.621,2.119-1.482,2.811
			c-1.427,0.826-4.479-0.248-7.77-3.079c-0.377-0.325-0.757-0.67-1.139-1.038c1.372-1.52,2.64-3.129,3.795-4.819
			c2.063-0.174,4.112-0.49,6.132-0.945c0.092,0.373,0.174,0.738,0.245,1.095l0,0C120.612,148.231,120.686,150.257,120.391,152.245
			L120.391,152.245z M122.034,142.584L122.034,142.584c-0.248,0.082-0.502,0.161-0.761,0.238c-0.633-1.962-1.399-3.878-2.293-5.736
			c0.86-1.833,1.596-3.722,2.204-5.652c0.463,0.134,0.913,0.275,1.346,0.425c4.191,1.442,6.746,3.575,6.746,5.218
			C129.275,138.826,126.515,141.099,122.034,142.584L122.034,142.584z"/>
		<path id="sass_1_" fill="#CD6799" d="M187.189,410.391c-1.495,0.008-2.793,0.367-3.881,0.899c-0.399-0.79-0.798-1.495-0.869-2.011
			c-0.078-0.603-0.172-0.971-0.078-1.689c0.094-0.721,0.517-1.746,0.509-1.824c-0.008-0.078-0.094-0.445-0.955-0.453
			c-0.861-0.009-1.604,0.164-1.69,0.391c-0.086,0.227-0.251,0.743-0.36,1.275c-0.149,0.783-1.722,3.576-2.622,5.039
			c-0.29-0.57-0.54-1.072-0.595-1.471c-0.079-0.604-0.172-0.971-0.079-1.69c0.094-0.72,0.517-1.745,0.509-1.823
			s-0.094-0.445-0.955-0.453s-1.604,0.164-1.69,0.391s-0.18,0.76-0.36,1.275c-0.18,0.517-2.27,5.181-2.817,6.386
			c-0.282,0.618-0.525,1.111-0.697,1.448l0,0c0,0-0.008,0.023-0.032,0.063c-0.148,0.289-0.234,0.445-0.234,0.445s0,0,0,0.008
			c-0.117,0.211-0.242,0.407-0.305,0.407c-0.047,0-0.133-0.563,0.016-1.331c0.313-1.619,1.057-4.139,1.049-4.225
			c0-0.047,0.141-0.485-0.485-0.713c-0.61-0.227-0.829,0.148-0.884,0.148c-0.054,0-0.093,0.134-0.093,0.134s0.68-2.833-1.299-2.833
			c-1.236,0-2.942,1.354-3.788,2.574c-0.532,0.29-1.667,0.908-2.88,1.573c-0.461,0.259-0.939,0.517-1.385,0.759
			c-0.032-0.031-0.063-0.07-0.094-0.102c-2.395-2.559-6.823-4.366-6.636-7.802c0.071-1.252,0.5-4.538,8.506-8.53
			c6.589-3.246,11.832-2.348,12.739-0.352c1.299,2.848-2.809,8.139-9.617,8.906c-2.598,0.289-3.959-0.713-4.304-1.089
			c-0.359-0.392-0.415-0.415-0.548-0.337c-0.219,0.118-0.078,0.471,0,0.674c0.204,0.531,1.041,1.471,2.457,1.933
			c1.252,0.407,4.296,0.634,7.982-0.79c4.124-1.597,7.348-6.033,6.401-9.751c-0.947-3.771-7.207-5.016-13.131-2.911
			c-3.521,1.253-7.34,3.225-10.087,5.791c-3.263,3.052-3.779,5.705-3.568,6.816c0.759,3.943,6.197,6.51,8.373,8.412
			c-0.11,0.063-0.211,0.117-0.298,0.164c-1.087,0.54-5.235,2.707-6.268,5c-1.174,2.599,0.188,4.461,1.087,4.711
			c2.794,0.775,5.666-0.617,7.208-2.919c1.541-2.3,1.354-5.29,0.642-6.659c-0.008-0.016-0.016-0.031-0.031-0.047
			c0.281-0.164,0.571-0.336,0.853-0.5c0.556-0.329,1.103-0.635,1.572-0.885c-0.266,0.728-0.462,1.596-0.556,2.848
			c-0.117,1.472,0.485,3.381,1.276,4.133c0.352,0.328,0.767,0.336,1.033,0.336c0.923,0,1.338-0.768,1.8-1.674
			c0.563-1.111,1.072-2.403,1.072-2.403s-0.634,3.49,1.088,3.49c0.626,0,1.26-0.813,1.541-1.229c0,0.008,0,0.008,0,0.008
			s0.016-0.023,0.047-0.078c0.063-0.103,0.102-0.164,0.102-0.164s0-0.009,0-0.016c0.25-0.438,0.814-1.433,1.651-3.083
			c1.08-2.129,2.121-4.789,2.121-4.789s0.093,0.648,0.414,1.729c0.188,0.635,0.579,1.33,0.892,2.004
			c-0.25,0.352-0.407,0.547-0.407,0.547s0,0,0.008,0.009c-0.204,0.265-0.423,0.556-0.666,0.837c-0.853,1.018-1.87,2.184-2.01,2.52
			c-0.165,0.399-0.125,0.688,0.187,0.924c0.228,0.172,0.634,0.195,1.049,0.172c0.767-0.055,1.307-0.242,1.573-0.359
			c0.415-0.148,0.9-0.376,1.354-0.713c0.837-0.618,1.346-1.502,1.299-2.668c-0.023-0.643-0.234-1.283-0.493-1.887
			c0.078-0.109,0.148-0.219,0.227-0.328c1.323-1.933,2.348-4.054,2.348-4.054s0.094,0.649,0.415,1.729
			c0.157,0.548,0.478,1.143,0.759,1.722c-1.244,1.009-2.011,2.183-2.285,2.95c-0.492,1.424-0.109,2.066,0.619,2.215
			c0.329,0.07,0.798-0.086,1.142-0.234c0.438-0.142,0.955-0.385,1.448-0.744c0.837-0.617,1.643-1.479,1.596-2.645
			c-0.023-0.533-0.164-1.057-0.36-1.564c1.056-0.439,2.417-0.682,4.155-0.479c3.725,0.438,4.461,2.763,4.319,3.74
			c-0.14,0.979-0.923,1.511-1.181,1.676c-0.258,0.164-0.344,0.219-0.321,0.336c0.031,0.172,0.157,0.164,0.375,0.133
			c0.305-0.055,1.956-0.79,2.027-2.59C193.254,412.879,191.063,410.367,187.189,410.391z M158.454,420.078
			c-1.236,1.346-2.958,1.854-3.701,1.424c-0.798-0.461-0.485-2.449,1.033-3.873c0.924-0.869,2.113-1.674,2.903-2.168
			c0.18-0.109,0.446-0.266,0.767-0.461c0.055-0.032,0.087-0.047,0.087-0.047l0,0c0.062-0.039,0.125-0.078,0.187-0.118
			C160.285,416.869,159.753,418.662,158.454,420.078z M167.453,413.959c-0.43,1.049-1.33,3.732-1.877,3.584
			c-0.47-0.125-0.759-2.16-0.094-4.171c0.336-1.009,1.049-2.215,1.464-2.685c0.672-0.751,1.416-1.002,1.596-0.696
			C168.768,410.391,167.72,413.301,167.453,413.959z M174.88,417.512c-0.181,0.094-0.353,0.156-0.431,0.109
			c-0.054-0.031,0.078-0.156,0.078-0.156s0.932-1.002,1.299-1.456c0.211-0.266,0.461-0.579,0.728-0.931c0,0.031,0,0.07,0,0.102
			C176.555,416.377,175.396,417.183,174.88,417.512z M180.608,416.205c-0.133-0.095-0.109-0.407,0.336-1.386
			c0.173-0.384,0.58-1.024,1.276-1.644c0.078,0.251,0.133,0.494,0.125,0.721C182.337,415.406,181.257,415.97,180.608,416.205z"/>
		<g id="vue_1_" transform="matrix(1.3333 0 0 -1.3333 -76.311 313.34)">
			<g transform="translate(178.06 235.01)">
				<path fill="#41B883" d="M177.17-88.916l-3.713-6.429l-3.712,6.429h-12.361l16.073-27.84l16.074,27.84H177.17z"/>
			</g>
			<g transform="translate(178.06 235.01)">
				<path fill="#34495E" d="M177.17-88.916l-3.713-6.429l-3.712,6.429h-5.931l9.643-16.703l9.645,16.703H177.17z"/>
			</g>
		</g>
		<g id="javascript_1_">
			<rect x="228.879" y="45.192" fill="#F7DF1E" width="43.18" height="43.18"/>
			<path d="M257.885,78.927c0.869,1.42,2.001,2.464,4.003,2.464c1.681,0,2.755-0.841,2.755-2.001c0-1.392-1.104-1.884-2.954-2.694
				l-1.014-0.436c-2.929-1.247-4.873-2.81-4.873-6.113c0-3.043,2.317-5.36,5.942-5.36c2.579,0,4.434,0.897,5.771,3.249l-3.16,2.029
				c-0.695-1.248-1.446-1.739-2.61-1.739c-1.188,0-1.942,0.754-1.942,1.739c0,1.218,0.754,1.71,2.495,2.464l1.014,0.435
				c3.448,1.478,5.395,2.985,5.395,6.374c0,3.653-2.87,5.654-6.724,5.654c-3.769,0-6.203-1.795-7.395-4.149L257.885,78.927z
				 M243.551,79.278c0.638,1.131,1.218,2.087,2.611,2.087c1.333,0,2.174-0.522,2.174-2.55V65.019h4.058v13.852
				c0,4.201-2.463,6.114-6.059,6.114c-3.249,0-5.13-1.681-6.087-3.707L243.551,79.278z"/>
		</g>
		<g id="node_1_">
			<g>
				<path fill-rule="evenodd" clip-rule="evenodd" fill="#333333" d="M310.975,414.782c0-0.339-0.178-0.651-0.471-0.819
					l-7.807-4.492c-0.132-0.077-0.278-0.118-0.429-0.123h-0.082c-0.148,0.005-0.296,0.046-0.43,0.123l-7.807,4.492
					c-0.29,0.168-0.471,0.48-0.471,0.819l0.017,12.096c0,0.168,0.088,0.325,0.235,0.407c0.146,0.087,0.325,0.087,0.469,0
					l4.639-2.656c0.294-0.174,0.472-0.482,0.472-0.818v-5.65c0-0.338,0.179-0.649,0.47-0.816l1.977-1.138
					c0.147-0.085,0.308-0.127,0.473-0.127c0.16,0,0.325,0.042,0.468,0.127l1.975,1.138c0.293,0.167,0.472,0.479,0.472,0.816v5.65
					c0,0.336,0.181,0.646,0.473,0.818l4.638,2.656c0.146,0.087,0.326,0.087,0.472,0c0.144-0.082,0.234-0.239,0.234-0.407
					L310.975,414.782z"/>
				<path fill-rule="evenodd" clip-rule="evenodd" fill="#333333" d="M348.532,398.154c-0.147-0.081-0.326-0.079-0.469,0.006
					c-0.144,0.084-0.232,0.239-0.232,0.406v11.979c0,0.118-0.064,0.227-0.166,0.286s-0.228,0.06-0.33,0l-1.954-1.127
					c-0.292-0.168-0.65-0.167-0.942,0.001l-7.809,4.506c-0.291,0.168-0.471,0.48-0.471,0.816v9.015c0,0.337,0.18,0.647,0.471,0.816
					l7.808,4.51c0.293,0.169,0.651,0.169,0.943,0l7.81-4.51c0.292-0.169,0.472-0.479,0.472-0.816V401.57
					c0-0.342-0.185-0.656-0.484-0.822L348.532,398.154z M347.808,421.08c0,0.084-0.046,0.162-0.118,0.204l-2.682,1.545
					c-0.072,0.042-0.163,0.042-0.234,0l-2.682-1.545c-0.073-0.042-0.118-0.12-0.118-0.204v-3.096c0-0.084,0.045-0.162,0.118-0.204
					l2.681-1.548c0.072-0.043,0.163-0.043,0.235,0l2.682,1.548c0.072,0.042,0.118,0.12,0.118,0.204V421.08z"/>
				<path fill-rule="evenodd" clip-rule="evenodd" fill="#333333" d="M374.532,417.904c0.291-0.17,0.469-0.48,0.469-0.816v-2.184
					c0-0.336-0.178-0.648-0.469-0.816l-7.759-4.504c-0.292-0.17-0.651-0.17-0.944-0.002l-7.807,4.506
					c-0.291,0.17-0.471,0.48-0.471,0.817v9.012c0,0.339,0.182,0.651,0.478,0.819l7.756,4.42c0.285,0.164,0.637,0.166,0.925,0.006
					l4.691-2.608c0.149-0.083,0.242-0.239,0.243-0.409c0-0.17-0.09-0.327-0.236-0.411l-7.856-4.509
					c-0.146-0.084-0.236-0.24-0.236-0.409v-2.825c0-0.168,0.089-0.323,0.235-0.407l2.444-1.409c0.146-0.084,0.326-0.084,0.472,0
					l2.445,1.409c0.146,0.084,0.237,0.239,0.237,0.407v2.223c0,0.169,0.089,0.325,0.235,0.409c0.146,0.085,0.327,0.083,0.473-0.001
					L374.532,417.904z"/>
				<path fill-rule="evenodd" clip-rule="evenodd" fill="#699F63" d="M366.187,417.481c0.056-0.032,0.125-0.032,0.181,0l1.499,0.864
					c0.056,0.032,0.09,0.092,0.09,0.157v1.729c0,0.064-0.034,0.125-0.09,0.157l-1.499,0.864c-0.056,0.033-0.125,0.033-0.181,0
					l-1.497-0.864c-0.057-0.032-0.091-0.093-0.091-0.157v-1.729c0-0.065,0.034-0.125,0.091-0.157L366.187,417.481z"/>
			</g>
			<g>
				<g>
					<defs>
						<path id="SVGID_1_" d="M323.099,409.63l-7.765,4.479c-0.29,0.169-0.468,0.479-0.468,0.813v8.969
							c0,0.335,0.178,0.645,0.468,0.813l7.765,4.484c0.29,0.168,0.647,0.168,0.938,0l7.763-4.484
							c0.29-0.168,0.468-0.478,0.468-0.813v-8.969c0-0.334-0.178-0.644-0.47-0.813l-7.761-4.479
							c-0.146-0.085-0.309-0.126-0.471-0.126C323.405,409.504,323.243,409.545,323.099,409.63"/>
					</defs>
					<clipPath id="SVGID_2_">
						<use xlink:href="#SVGID_1_"  overflow="visible"/>
					</clipPath>
					
						<linearGradient id="SVGID_3_" gradientUnits="userSpaceOnUse" x1="-47.3394" y1="553.3223" x2="-47.1552" y2="553.3223" gradientTransform="matrix(-38.0649 77.6524 77.6524 38.0649 -44441.9375 -16973.125)">
						<stop  offset="0" style="stop-color:#41873F"/>
						<stop  offset="0.3288" style="stop-color:#418B3D"/>
						<stop  offset="0.6352" style="stop-color:#419637"/>
						<stop  offset="0.9319" style="stop-color:#3FA92D"/>
						<stop  offset="1" style="stop-color:#3FAE2A"/>
					</linearGradient>
					<polygon clip-path="url(#SVGID_2_)" fill="url(#SVGID_3_)" points="340.113,413.35 328.896,436.233 307.019,425.51 
						318.237,402.625 					"/>
				</g>
				<g>
					<defs>
						<path id="SVGID_4_" d="M315.058,424.461c0.074,0.097,0.167,0.18,0.276,0.242l6.66,3.847l1.109,0.638
							c0.165,0.096,0.355,0.137,0.541,0.123c0.062-0.006,0.123-0.017,0.185-0.035l8.187-14.992
							c-0.063-0.067-0.135-0.125-0.218-0.174l-5.084-2.934l-2.687-1.546c-0.076-0.045-0.157-0.077-0.243-0.098L315.058,424.461z"/>
					</defs>
					<clipPath id="SVGID_5_">
						<use xlink:href="#SVGID_4_"  overflow="visible"/>
					</clipPath>
					
						<linearGradient id="SVGID_6_" gradientUnits="userSpaceOnUse" x1="-48.9995" y1="549.2754" x2="-48.8151" y2="549.2754" gradientTransform="matrix(106.8073 -78.9149 -78.9149 -106.8073 48901.8438 55220.25)">
						<stop  offset="0" style="stop-color:#41873F"/>
						<stop  offset="0.1376" style="stop-color:#41873F"/>
						<stop  offset="0.4032" style="stop-color:#54A044"/>
						<stop  offset="0.7136" style="stop-color:#66B848"/>
						<stop  offset="0.9081" style="stop-color:#6CC04A"/>
						<stop  offset="1" style="stop-color:#6CC04A"/>
					</linearGradient>
					<polygon clip-path="url(#SVGID_5_)" fill="url(#SVGID_6_)" points="305.6,416.521 326.028,401.428 341.476,422.335 
						321.046,437.43 					"/>
				</g>
				<g>
					<defs>
						<path id="SVGID_7_" d="M323.099,409.63l-7.765,4.479c-0.29,0.169-0.468,0.479-0.468,0.813v8.969
							c0,0.335,0.178,0.645,0.468,0.813l7.765,4.484c0.29,0.168,0.647,0.168,0.938,0l7.763-4.484
							c0.29-0.168,0.468-0.478,0.468-0.813v-8.969c0-0.334-0.178-0.644-0.47-0.813l-7.761-4.479
							c-0.146-0.085-0.309-0.126-0.471-0.126C323.405,409.504,323.243,409.545,323.099,409.63"/>
					</defs>
					<clipPath id="SVGID_8_">
						<use xlink:href="#SVGID_7_"  overflow="visible"/>
					</clipPath>
					<g clip-path="url(#SVGID_8_)">
						<defs>
							<polygon id="SVGID_9_" points="322.84,407.982 322.733,408.043 322.876,408.043 							"/>
						</defs>
						<clipPath id="SVGID_10_">
							<use xlink:href="#SVGID_9_"  overflow="visible"/>
						</clipPath>
						
							<linearGradient id="SVGID_11_" gradientUnits="userSpaceOnUse" x1="-47.2485" y1="548.5449" x2="-47.061" y2="548.5449" gradientTransform="matrix(97.417 0 0 -97.417 4917.3125 53845.625)">
							<stop  offset="0" style="stop-color:#6CC04A"/>
							<stop  offset="0.0919" style="stop-color:#6CC04A"/>
							<stop  offset="0.2864" style="stop-color:#66B848"/>
							<stop  offset="0.5968" style="stop-color:#54A044"/>
							<stop  offset="0.8624" style="stop-color:#41873F"/>
							<stop  offset="1" style="stop-color:#41873F"/>
						</linearGradient>
						<rect x="322.733" y="407.982" clip-path="url(#SVGID_10_)" fill="url(#SVGID_11_)" width="0.143" height="0.061"/>
					</g>
				</g>
				<g>
					<defs>
						<path id="SVGID_12_" d="M323.473,409.509c-0.13,0.013-0.257,0.054-0.374,0.121l-7.743,4.468l8.348,15.205
							c0.116-0.016,0.228-0.055,0.334-0.115l7.763-4.484c0.239-0.139,0.403-0.374,0.453-0.641l-8.511-14.539
							c-0.062-0.012-0.127-0.018-0.19-0.018C323.524,409.506,323.499,409.507,323.473,409.509"/>
					</defs>
					<clipPath id="SVGID_13_">
						<use xlink:href="#SVGID_12_"  overflow="visible"/>
					</clipPath>
					
						<linearGradient id="SVGID_14_" gradientUnits="userSpaceOnUse" x1="-47.2471" y1="549.0625" x2="-47.0628" y2="549.0625" gradientTransform="matrix(97.417 0 0 -97.417 4917.3125 53907.4375)">
						<stop  offset="0" style="stop-color:#6CC04A"/>
						<stop  offset="0.0919" style="stop-color:#6CC04A"/>
						<stop  offset="0.2864" style="stop-color:#66B848"/>
						<stop  offset="0.5968" style="stop-color:#54A044"/>
						<stop  offset="0.8624" style="stop-color:#41873F"/>
						<stop  offset="1" style="stop-color:#41873F"/>
					</linearGradient>
					<rect x="315.355" y="409.506" clip-path="url(#SVGID_13_)" fill="url(#SVGID_14_)" width="16.897" height="19.797"/>
				</g>
				<g>
					<defs>
						<path id="SVGID_15_" d="M323.099,409.63l-7.765,4.479c-0.29,0.169-0.468,0.479-0.468,0.813v8.969
							c0,0.335,0.178,0.645,0.468,0.813l7.765,4.484c0.29,0.168,0.647,0.168,0.938,0l7.763-4.484
							c0.29-0.168,0.468-0.478,0.468-0.813v-8.969c0-0.334-0.178-0.644-0.47-0.813l-7.761-4.479
							c-0.146-0.085-0.309-0.126-0.471-0.126C323.405,409.504,323.243,409.545,323.099,409.63"/>
					</defs>
					<clipPath id="SVGID_16_">
						<use xlink:href="#SVGID_15_"  overflow="visible"/>
					</clipPath>
					<g clip-path="url(#SVGID_16_)">
						<defs>
							<polygon id="SVGID_17_" points="332.543,424.559 332.492,424.471 332.492,424.589 							"/>
						</defs>
						<clipPath id="SVGID_18_">
							<use xlink:href="#SVGID_17_"  overflow="visible"/>
						</clipPath>
						
							<linearGradient id="SVGID_19_" gradientUnits="userSpaceOnUse" x1="-47.2295" y1="549.2949" x2="-47.0628" y2="549.2949" gradientTransform="matrix(97.417 0 0 -97.417 4917.3125 53935.25)">
							<stop  offset="0" style="stop-color:#6CC04A"/>
							<stop  offset="0.0919" style="stop-color:#6CC04A"/>
							<stop  offset="0.2864" style="stop-color:#66B848"/>
							<stop  offset="0.5968" style="stop-color:#54A044"/>
							<stop  offset="0.8624" style="stop-color:#41873F"/>
							<stop  offset="1" style="stop-color:#41873F"/>
						</linearGradient>
						<rect x="332.492" y="424.471" clip-path="url(#SVGID_18_)" fill="url(#SVGID_19_)" width="0.051" height="0.118"/>
					</g>
				</g>
				<g>
					<defs>
						<path id="SVGID_20_" d="M323.099,409.63l-7.765,4.479c-0.29,0.169-0.468,0.479-0.468,0.813v8.969
							c0,0.335,0.178,0.645,0.468,0.813l7.765,4.484c0.29,0.168,0.647,0.168,0.938,0l7.763-4.484
							c0.29-0.168,0.468-0.478,0.468-0.813v-8.969c0-0.334-0.178-0.644-0.47-0.813l-7.761-4.479
							c-0.146-0.085-0.309-0.126-0.471-0.126C323.405,409.504,323.243,409.545,323.099,409.63"/>
					</defs>
					<clipPath id="SVGID_21_">
						<use xlink:href="#SVGID_20_"  overflow="visible"/>
					</clipPath>
					<g clip-path="url(#SVGID_21_)">
						<defs>
							<path id="SVGID_22_" d="M331.818,424.703l-7.772,4.484c-0.106,0.063-0.223,0.101-0.343,0.117l0.155,0.281l8.634-4.997v-0.118
								l-0.214-0.365C332.215,424.355,332.045,424.572,331.818,424.703"/>
						</defs>
						<clipPath id="SVGID_23_">
							<use xlink:href="#SVGID_22_"  overflow="visible"/>
						</clipPath>
						
							<linearGradient id="SVGID_24_" gradientUnits="userSpaceOnUse" x1="-47.2476" y1="549.4014" x2="-47.0629" y2="549.4014" gradientTransform="matrix(97.417 0 0 -97.417 4917.3125 53947.875)">
							<stop  offset="0" style="stop-color:#6CC04A"/>
							<stop  offset="0.0919" style="stop-color:#6CC04A"/>
							<stop  offset="0.2864" style="stop-color:#66B848"/>
							<stop  offset="0.5968" style="stop-color:#54A044"/>
							<stop  offset="0.8624" style="stop-color:#41873F"/>
							<stop  offset="1" style="stop-color:#41873F"/>
						</linearGradient>
						<rect x="323.703" y="424.105" clip-path="url(#SVGID_23_)" fill="url(#SVGID_24_)" width="8.789" height="5.48"/>
					</g>
				</g>
				<g>
					<defs>
						<path id="SVGID_25_" d="M323.099,409.63l-7.765,4.479c-0.29,0.169-0.468,0.479-0.468,0.813v8.969
							c0,0.335,0.178,0.645,0.468,0.813l7.765,4.484c0.29,0.168,0.647,0.168,0.938,0l7.763-4.484
							c0.29-0.168,0.468-0.478,0.468-0.813v-8.969c0-0.334-0.178-0.644-0.47-0.813l-7.761-4.479
							c-0.146-0.085-0.309-0.126-0.471-0.126C323.405,409.504,323.243,409.545,323.099,409.63"/>
					</defs>
					<clipPath id="SVGID_26_">
						<use xlink:href="#SVGID_25_"  overflow="visible"/>
					</clipPath>
					<g clip-path="url(#SVGID_26_)">
						<defs>
							<path id="SVGID_27_" d="M331.818,424.703l-7.772,4.484c-0.106,0.063-0.223,0.101-0.343,0.117l0.155,0.281l8.634-4.997v-0.118
								l-0.214-0.365C332.215,424.355,332.045,424.572,331.818,424.703"/>
						</defs>
						<clipPath id="SVGID_28_">
							<use xlink:href="#SVGID_27_"  overflow="visible"/>
						</clipPath>
						
							<linearGradient id="SVGID_29_" gradientUnits="userSpaceOnUse" x1="-47.8159" y1="552.2285" x2="-47.6316" y2="552.2285" gradientTransform="matrix(-60.0806 122.5644 122.5644 60.0806 -70221.4688 -26905.375)">
							<stop  offset="0" style="stop-color:#41873F"/>
							<stop  offset="0.3288" style="stop-color:#418B3D"/>
							<stop  offset="0.6352" style="stop-color:#419637"/>
							<stop  offset="0.9319" style="stop-color:#3FA92D"/>
							<stop  offset="1" style="stop-color:#3FAE2A"/>
						</linearGradient>
						<polygon clip-path="url(#SVGID_28_)" fill="url(#SVGID_29_)" points="334.656,425.168 330.788,433.06 321.537,428.524 
							325.405,420.633 						"/>
					</g>
				</g>
			</g>
		</g>
		<g id="gridsome_1_">
			
				<linearGradient id="SVGID_30_" gradientUnits="userSpaceOnUse" x1="417.623" y1="189.8169" x2="417.623" y2="167.5225" gradientTransform="matrix(1 0 0 -1 8.3999 477.04)">
				<stop  offset="0" style="stop-color:#00583E"/>
				<stop  offset="1" style="stop-color:#00835C"/>
			</linearGradient>
			<path fill="url(#SVGID_30_)" d="M441.284,287.41c1.816-0.088,3.425,1.321,3.581,3.139c0.68,8.795-7.369,18.647-18.712,18.963
				c-9.559,0.236-19.012-7.416-19.012-18.987c0-1.823,1.507-3.302,3.325-3.302s3.292,1.479,3.292,3.302
				c0,7.61,6.12,12.536,12.232,12.386c7.524-0.209,12.417-6.725,12.162-12.045C438.066,289.045,439.469,287.497,441.284,287.41z"/>
			<path fill="#00A672" d="M433.059,290.78c0-1.867,1.523-3.38,3.401-3.38h4.957c1.879,0,3.448,1.513,3.448,3.38
				s-1.569,3.38-3.448,3.38h-4.957C434.582,294.16,433.059,292.647,433.059,290.78z"/>
			<path fill="#00A672" d="M422.658,290.785c0-1.869,1.514-3.385,3.378-3.385s3.378,1.516,3.378,3.385s-1.514,3.385-3.378,3.385
				S422.658,292.654,422.658,290.785z"/>
			<path fill="#00A672" d="M429.32,274.969c0.075,1.821-1.336,3.359-3.153,3.436c-7.844,0.326-12.632,6.491-12.398,12.345
				c0.072,1.821-1.313,3.358-3.13,3.431c-1.816,0.072-3.414-1.398-3.487-3.22c-0.379-9.538,7.563-18.968,18.742-19.153
				C427.711,271.73,429.245,273.146,429.32,274.969z"/>
		</g>
		<g id="gatsby_1_">
			<path fill="#744C9E" d="M73.522,272.766c-9.883,0-17.895,8.012-17.895,17.895s8.012,17.895,17.895,17.895
				s17.895-8.012,17.895-17.895S83.405,272.766,73.522,272.766z M59.473,290.846l13.864,13.863
				C65.724,304.609,59.572,298.459,59.473,290.846z M76.667,304.357l-16.843-16.844c1.429-6.246,7.019-10.906,13.698-10.906
				c4.669,0,8.806,2.277,11.36,5.781l-1.945,1.717c-2.073-2.971-5.517-4.918-9.415-4.918c-4.964,0-9.191,3.154-10.788,7.566
				l14.694,14.693c3.568-1.291,6.313-4.305,7.232-8.035H78.57v-2.752h6.423l0,0h2.581l0,0
				C87.574,297.338,82.914,302.93,76.667,304.357z"/>
		</g>
	</g>
	<g id="certel">
		<path fill="#FFC9AE" d="M217.777,268.779c-44.064,37.037-68.979-13.226-59.065-39.197c0,0,12.853,7.374,13.446-1.306
			c0.593-8.68-8.087-2.529-11.795-5.812c-3.707-3.284-2.31-7.759,1.101-8.88s4.953,0,5.652,4.292
			c0.629,3.865,6.662,4.335,7.997,1.073c1.335-3.262,0.491-13.951-15.08-14.396c-0.445-2.224,4.513-20.718-3.962-20.607
			c-6.763,0.089-4.111,14.89-3.962,19.042c-2.373-6.97-2.679-18.639-9.796-15.08c-7.118,3.559,4.072,19.262,4.072,19.262
			s-7.628-12.933-12.218-6.935c-3.302,4.316,0.881,8.255,6.851,12.59c4.62,3.354,1.88,13.116,1.187,16.755
			c-2.225,11.67-8.975,57.639,26.84,72.315c18.685,7.656,38.078,1.334,38.078,1.334L217.777,268.779z"/>
		<path fill="#FFB890" d="M217.778,268.775l-10.66,34.46c0,0-19.39,6.32-38.07-1.34c-29.56-12.11-30.13-45.53-28.17-63.4
			c-0.29,18.35,4.23,43.18,28.82,53.25c18.68,7.659,38.08,1.34,38.08,1.34l6.7-21.67
			C215.558,270.596,216.668,269.716,217.778,268.775z"/>
		<path fill="#FFC9AE" d="M282.224,268.779c44.063,37.037,68.979-13.226,59.064-39.197c0,0-12.853,7.374-13.445-1.306
			c-0.594-8.68,8.087-2.529,11.794-5.812c3.707-3.284,2.311-7.759-1.101-8.88c-3.41-1.122-4.953,0-5.651,4.292
			c-0.63,3.865-6.662,4.335-7.997,1.073c-1.335-3.262-0.491-13.951,15.079-14.396c0.445-2.224-4.513-20.718,3.963-20.607
			c6.763,0.089,4.111,14.89,3.963,19.042c2.372-6.97,2.678-18.639,9.796-15.08c7.118,3.559-4.072,19.262-4.072,19.262
			s7.629-12.933,12.218-6.935c3.302,4.316-0.881,8.255-6.851,12.59c-4.62,3.354-1.88,13.116-1.187,16.755
			c2.225,11.67,8.975,57.639-26.84,72.315c-18.685,7.656-38.078,1.334-38.078,1.334L282.224,268.779z"/>
		<path fill="#FFB890" d="M282.258,268.775l10.66,34.46c0,0,19.39,6.32,38.07-1.34c29.56-12.11,30.13-45.53,28.17-63.4
			c0.29,18.35-4.23,43.18-28.82,53.25c-18.68,7.659-38.08,1.34-38.08,1.34l-6.7-21.67
			C284.478,270.596,283.368,269.716,282.258,268.775z"/>
		<path fill="#363636" d="M303.752,276.514c-5.162-0.696-19.3-6.916-24.635-10.171c-13.148-10.393-43.766-11.052-57.145-0.982
			c-1.242,0.935-20.937,11.679-26.197,11.153c-4.273-0.426-5.585,35.115,0,36.663c2.03,0.563,3.958,0.954,5.595,1.228
			c-0.732,23.289-1.366,59.338,2.784,63.994c5.039,5.654,86.557,5.654,91.595,0c4.167-4.676,3.358-40.814,2.569-64.022
			c1.603-0.271,3.469-0.655,5.434-1.199C309.337,311.629,308.008,277.088,303.752,276.514z"/>
		<path fill="#FFB890" d="M259.599,252.174h-19.294c0,11.786-1.08,17.679,9.646,17.679S259.599,263.96,259.599,252.174z"/>
		<path fill="#073D4C" d="M356.133,393.783c-4.582-18.78-35.599-24.322-52.284-24.014H198.765
			c-16.686-0.309-47.703,5.233-52.285,24.014c-4.532,18.574,0.795,54.005,104.827,33.929
			C355.338,447.788,360.665,412.357,356.133,393.783z"/>
		<path fill="#074559" d="M356.133,393.431c5.341,19.016-0.898,55.274-108.303,33.537c0,0,3.182-20.494-1.711-34.468
			C308.563,370.05,351.876,378.274,356.133,393.431z"/>
		<path fill="#073D4C" d="M247.828,426.966c0,0,0.34-2.17,0.63-5.58c96.42,19.1,109.88-9.23,107.439-28.681
			c0.091,0.24,0.17,0.48,0.24,0.721C361.478,412.445,355.238,448.705,247.828,426.966z"/>
		<g>
			<path fill="#FFBE13" d="M290.629,433.616c-3.098,0.298-6.914,0.161-11.028-0.243c-15.602-1.525-35.366-6.909-35.366-6.909
				l10.889-28.794c0,0,15.061-0.647,27.193-0.547c6.022,0.054,11.325,0.291,13.711,0.878
				C306.538,400.604,306.903,432.033,290.629,433.616z"/>
			<path fill="#919191" d="M254.919,405.59c0.402,0.043,24.391,0.799,23.68,1.137c-0.71,0.338-1.618,15.249-1.618,15.249
				s-24.295-3.404-24.035-3.79C253.204,417.8,254.919,405.59,254.919,405.59z"/>
			<path fill="#FFFFFF" d="M290.629,433.616c-3.098,0.298-6.914,0.161-11.028-0.243c-3.287-4.814-4.965-11.85-4.159-19.442
				c0.723-6.805,3.307-12.753,6.876-16.808c6.022,0.054,11.325,0.291,13.711,0.878C306.538,400.604,306.903,432.033,290.629,433.616
				z"/>
			<path fill="#D1D1D1" d="M290.629,433.616c-1.857,0.186-3.982,0.204-6.274,0.107c0.427-0.028,0.836-0.058,1.23-0.098
				c16.281-1.574,15.908-33.012,5.399-35.615c-2.536-0.628-6.489-0.884-8.667-0.884c4.825,0,10.532,0.089,13.711,0.874
				C306.538,400.604,306.903,432.033,290.629,433.616z"/>
			<g>
				<g>
					<path fill="#D1D1D1" d="M274.436,424.899c-0.654,0-1.256-0.432-1.442-1.093c-1.238-4.387-0.507-9.896,0.406-13.978
						c-1.785,3.143-3.409,7.817-2.881,12.291c0.098,0.822-0.49,1.568-1.313,1.665c-0.827,0.106-1.568-0.49-1.665-1.313
						c-0.962-8.131,4.411-18.637,8.643-19.353c0.524-0.092,1.059,0.107,1.4,0.517c0.343,0.409,0.441,0.97,0.261,1.472
						c-0.04,0.108-3.911,10.984-1.964,17.885c0.226,0.797-0.238,1.626-1.036,1.851C274.708,424.882,274.57,424.899,274.436,424.899z
						"/>
				</g>
				<g>
					<path fill="#D1D1D1" d="M262.954,423.151c-0.75,0-1.397-0.561-1.487-1.324c-0.962-8.131,4.411-18.637,8.643-19.353
						c0.812-0.141,1.59,0.411,1.729,1.229c0.139,0.816-0.411,1.591-1.229,1.729c-1.77,0.3-7.061,8.462-6.164,16.044
						c0.098,0.822-0.49,1.568-1.313,1.665C263.072,423.148,263.013,423.151,262.954,423.151z"/>
				</g>
				<g>
					<path fill="#D1D1D1" d="M256.882,422.507c-0.75,0-1.397-0.561-1.487-1.324c-0.962-8.13,4.41-18.636,8.642-19.354
						c0.822-0.14,1.591,0.412,1.729,1.228c0.139,0.816-0.411,1.591-1.228,1.729c-1.771,0.301-7.062,8.464-6.165,16.045
						c0.098,0.822-0.49,1.568-1.313,1.665C257,422.504,256.94,422.507,256.882,422.507z"/>
				</g>
			</g>
			<g>
				<g>
					<path fill="#FFFFFF" d="M274.492,424.376c-0.186,0-0.373-0.034-0.556-0.106c-3.986-1.591-7.034-12.99-4.387-20.737
						c0.268-0.784,1.118-1.206,1.904-0.934c0.783,0.268,1.202,1.12,0.934,1.904c-2.468,7.223,0.992,16.314,2.66,16.979
						c0.77,0.308,1.145,1.18,0.838,1.949C275.651,424.019,275.088,424.376,274.492,424.376z"/>
				</g>
				<g>
					<path fill="#FFFFFF" d="M268.42,423.731c-0.186,0-0.373-0.034-0.556-0.106c-3.986-1.591-7.034-12.99-4.387-20.737
						c0.268-0.784,1.119-1.204,1.904-0.934c0.783,0.268,1.202,1.12,0.934,1.904c-2.468,7.223,0.992,16.314,2.66,16.979
						c0.77,0.308,1.145,1.18,0.838,1.949C269.579,423.374,269.016,423.731,268.42,423.731z"/>
				</g>
				<g>
					<path fill="#FFFFFF" d="M262.347,423.087c-0.186,0-0.373-0.034-0.556-0.106c-3.986-1.591-7.034-12.99-4.387-20.737
						c0.268-0.784,1.12-1.204,1.904-0.934c0.783,0.268,1.202,1.12,0.934,1.904c-2.468,7.223,0.992,16.314,2.66,16.979
						c0.77,0.308,1.145,1.18,0.838,1.949C263.506,422.729,262.942,423.087,262.347,423.087z"/>
				</g>
			</g>
		</g>
		<g>
			<path fill="#C9C9C9" d="M300.474,382.64c-5.08,4.139-95.386,4.756-101.157,0c-5.771-4.757-12.271-76.742-8.815-80.199
				c3.457-3.456,113.998-3.144,118.788,0C314.078,305.584,305.555,378.501,300.474,382.64z"/>
			<path opacity="0.21" fill="#C9C9C9" d="M304.768,368.285c-1.47,7.74-2.99,13.29-4.29,14.351c-5.08,4.14-95.39,4.76-101.16,0
				c-5.77-4.75-12.27-76.74-8.82-80.2c0.48-0.47,5.601,46.804,20.386,59.596C236.778,384.434,286.529,378.906,304.768,368.285z"/>
			<g>
				<polygon fill="#BE3827" points="242.475,343.097 252.943,340.078 239.455,332.629 				"/>
				<g>
					<polygon fill="#F8A51C" points="245.495,353.566 242.475,343.097 232.005,346.117 					"/>
					<polygon fill="#F05825" points="239.455,332.629 236.435,322.16 228.985,335.647 					"/>
					<polygon fill="#F5891F" points="242.475,343.097 239.455,332.627 232.005,346.117 					"/>
					<polygon fill="#CD3727" points="252.943,340.078 249.923,329.608 239.455,332.629 					"/>
					<polygon fill="#EE3D24" points="239.455,332.629 249.923,329.608 236.435,322.16 					"/>
					<polygon fill="#F17023" points="239.454,332.628 228.985,335.647 232.005,346.117 					"/>
				</g>
				<polygon fill="#BE3827" points="263.413,343.097 252.943,340.078 266.433,332.628 				"/>
				<g>
					<polygon fill="#F8A51C" points="260.394,353.565 263.413,343.097 273.881,346.116 					"/>
					<polygon fill="#F05825" points="266.433,332.628 269.452,322.158 276.901,335.647 					"/>
					<polygon fill="#F5891F" points="263.413,343.097 266.433,332.627 273.881,346.116 					"/>
					<polygon fill="#CD3727" points="252.943,340.078 255.963,329.608 266.433,332.629 					"/>
					<polygon fill="#EE3D24" points="266.433,332.628 255.963,329.608 269.452,322.158 					"/>
					<polygon fill="#F17023" points="266.434,332.627 276.901,335.647 273.882,346.116 					"/>
				</g>
				<polygon fill="#A63425" points="252.943,340.078 242.475,343.097 252.943,348.794 263.413,343.097 				"/>
			</g>
		</g>
		<path fill="#0C5870" d="M181.792,377.635c23.234,1.494,60.975,14.26,75.831,18.141c-2.226,3.508-5.617,31.53-4.113,32.984
			c-108.32,21.967-111.645-17.635-107.029-35.779C147.935,387.261,157.317,376.062,181.792,377.635z"/>
		<path fill="#074559" d="M253.508,428.756c-100.65,20.41-110.64-12.33-107.86-31.63c2.89,18.329,23.64,38.47,107.86,21.399V428.756
			z"/>
		<g>
			<path fill="#B64401" d="M297.298,205.815c-0.1,0.08-0.271,0.16-0.49,0.23c-0.79,0.26-2.3,0.45-4.38,0.59
				c-0.49,0.03-1.02,0.06-1.58,0.08c-0.08,0.01-0.16,0.01-0.24,0.01c-0.409,0.02-0.83,0.04-1.27,0.05
				c-0.33,0.02-0.68,0.03-1.04,0.04c-0.59,0.02-1.21,0.03-1.85,0.04c-18.37,0.36-55.01-1.13-72.331-1.91
				c-0.32-0.01-0.63-0.03-0.93-0.04c-0.91-0.04-1.76-0.08-2.54-0.11c-0.42-0.02-0.81-0.04-1.19-0.06c-3.06-0.14-4.83-0.23-4.83-0.23
				c-0.51-0.55-1.06-1.25-1.62-2.06c-3.41-4.84-7.35-13.41-5.08-15.18c2.65-2.07,6.62-0.51,6.7-1.72
				c0.09-1.21-6.25-10.52-3.69-13.45c2.57-2.93,2.57-0.34,3.69-1.38c0.65-0.6-1.17-4.97-1.56-9.38c-0.06-0.6-0.08-1.2-0.08-1.79
				c0.04-2.56,0.75-4.95,2.93-6.42c1.51-1.02,2.4-1.83,2.92-2.49c1.71-2.15-0.36-2.82,2.49-4.4c3.73-2.07,8.56,1.03,8.56,1.03
				s6.72-12.58,10.17-13.1c3.45-0.52,3.1,4.65,6.04,3.96c2.93-0.69,7.24-6.72,10.86-7.93c5.229-1.74-1.48,5.52,1.03,5.52
				c2.52,0,8.11-6.9,16.21-8.1c2.76,2.41-1.21,6.38,5.17,7.41c6.38,1.04,3.449,6.55,7.59,8.45c4.14,1.9,3.62,0.52,7.76,1.9
				c4.13,1.37,2.63,2.75,3.81,7.24c1.19,4.48,0.15,5.34,4.551,7.76c4.399,2.41,9.01,4.31,6.699,9.65c-2.3,5.35-2.689,9.14,0,8.1
				c2.7-1.03,3.211-1.2,2.521,1.9c-0.69,3.1-5.86,10.35-1.55,10.35C305.058,190.375,301.218,202.735,297.298,205.815z"/>
			<path fill="#B64401" d="M297.298,205.815c-0.1,0.08-0.271,0.16-0.49,0.23c-0.79,0.26-2.3,0.45-4.38,0.59
				c-0.49,0.03-1.02,0.06-1.58,0.08c-0.08,0.01-0.16,0.01-0.24,0.01c-0.409,0.02-0.83,0.04-1.27,0.05
				c-0.33,0.02-0.68,0.03-1.04,0.04c-0.59,0.02-1.21,0.03-1.85,0.04c-18.37,0.36-55.01-1.13-72.331-1.91
				c-0.32-0.01-0.63-0.03-0.93-0.04c-0.91-0.04-1.76-0.08-2.54-0.11c-0.42-0.02-0.81-0.04-1.19-0.06c-3.06-0.14-4.83-0.23-4.83-0.23
				c-0.51-0.55-1.06-1.25-1.62-2.06c-3.41-4.84-7.35-13.41-5.08-15.18c2.65-2.07,6.62-0.51,6.7-1.72
				c0.09-1.21-6.25-10.52-3.69-13.45c2.57-2.93,2.57-0.34,3.69-1.38c0.65-0.6-1.17-4.97-1.56-9.38c-0.06-0.6-0.08-1.2-0.08-1.79
				c0.04-2.56,0.75-4.95,2.93-6.42c1.51-1.02,2.4-1.83,2.92-2.49c1.71-2.15-0.36-2.82,2.49-4.4c3.73-2.07,8.56,1.03,8.56,1.03
				s6.72-12.58,10.17-13.1c3.45-0.52,3.1,4.65,6.04,3.96c2.93-0.69,7.24-6.72,10.86-7.93c5.229-1.74-1.48,5.52,1.03,5.52
				c2.52,0,8.11-6.9,16.21-8.1c2.76,2.41-1.21,6.38,5.17,7.41c6.38,1.04,3.449,6.55,7.59,8.45c4.14,1.9,3.62,0.52,7.76,1.9
				c4.13,1.37,2.63,2.75,3.81,7.24c1.19,4.48,0.15,5.34,4.551,7.76c4.399,2.41,9.01,4.31,6.699,9.65c-2.3,5.35-2.689,9.14,0,8.1
				c2.7-1.03,3.211-1.2,2.521,1.9c-0.69,3.1-5.86,10.35-1.55,10.35C305.058,190.375,301.218,202.735,297.298,205.815z"/>
			<path opacity="0.31" fill="#B64401" d="M294.058,203.565c-0.01,0.32-0.02,0.64-0.03,0.96c-0.05,1.04-0.75,1.79-1.6,2.11
				c-0.51,0.19-1.08,0.23-1.58,0.08c-0.03,0-0.06-0.01-0.09-0.02c-0.05,0.02-0.1,0.03-0.15,0.03c-0.409,0.12-0.85,0.13-1.27,0.05
				c-0.37-0.06-0.72-0.21-1.021-0.44c-0.31-0.24-0.56-0.56-0.699-0.96c-0.101-0.27-0.141-0.58-0.13-0.92
				c0.17-3.81-0.16-7.44-1.08-11.16c-0.391-1.55,0.64-2.61,1.83-2.85c0.039-0.02,0.09-0.02,0.13-0.03
				c-0.19-0.82-0.41-1.63-0.66-2.43c0-0.01,0-0.01-0.01-0.02c-0.409-1.326-0.908-2.632-1.506-3.898
				c-0.075-0.15-0.146-0.303-0.225-0.452c-0.08-0.15-0.16-0.3-0.24-0.44c-0.01-0.02-0.01-0.03-0.02-0.05
				c-0.05-0.11-0.12-0.23-0.19-0.34c-0.109-0.22-0.24-0.44-0.39-0.65c-0.53-0.87-1.12-1.68-1.771-2.43
				c-0.05-0.06-0.1-0.13-0.159-0.19c-3.311-3.78-7.9-6.16-12.74-8.09c-11.61-4.61-25.12-4.27-37.28-1.42c0.35,1.69-0.34,3.52-2.5,4
				c-6.18,2.06-10.91,5.33-16.01,8.94h-0.01c-0.67,0.47-1.34,0.95-2.03,1.43c0,2.08-0.17,4.22-0.58,6.45
				c-0.03,0.2-0.08,0.4-0.14,0.59c0.78,1.91,1.47,3.98,1.85,6.04c0.03,0.03,0.05,0.06,0.08,0.09c0.33,0.38,0.63,0.84,0.85,1.39
				c0.76,1.91,0.36,3.59-0.63,4.96v0.01c-0.25,0.36-0.54,0.69-0.87,1c-0.02,0.03-0.05,0.05-0.08,0.08
				c-0.34,0.62-0.78,1.17-1.28,1.63c-0.65,0.61-1.41,1.08-2.23,1.41c-0.23,0.08-0.47,0.16-0.71,0.22c-0.14,0.05-0.27,0.08-0.41,0.11
				c-1.72,0.38-3.6,0.17-5.28-0.74c-0.96-0.52-1.93-1.27-2.86-2.19c0.47-0.97,1.08-1.79,1.8-2.37c0.29-0.24,0.58-0.44,0.87-0.61
				c-3.41-4.84-7.35-13.41-5.08-15.18c2.65-2.07,6.62-0.51,6.7-1.72c0.09-1.21-6.25-10.52-3.69-13.45c2.57-2.93,2.57-0.34,3.69-1.38
				c0.65-0.6-1.17-4.97-1.56-9.38c0.02-0.01,0.05-0.01,0.07-0.02c-0.08-0.59-0.14-1.19-0.15-1.77c0.04-2.56,0.75-4.95,2.93-6.42
				c1.51-1.02,2.4-1.83,2.92-2.49c0.38,0.1,0.69,0.49,0.55,0.92c-1.19,3.52-2.59,6.21-1.21,9.94c0.83-0.95,1.72-1.83,2.67-2.7
				c1.99-1.82,4.85,0.78,3.48,2.79c0.73,0.03,1.45,0.14,2.16,0.33c1.53-3.49,3.27-6.8,7.12-8.46c1.44-0.62,3.4,0.41,2.85,2.2
				c-0.14,0.44-0.3,0.95-0.46,1.5c0.36-0.62,0.65-1.11,0.82-1.36c1.24-1.85,3.95-2.35,5.87-1.53c2.03-1.95,4.1-3.86,6.22-5.68
				c3.52-3.02,6.86-5.07,11.57-4.38c2.959,0.43,3.11,4.84,0.799,6.15c-0.76,0.48-1.5,1-2.22,1.52c-0.79,0.63-1.53,1.32-2.23,2.09
				l-0.02,0.03c-0.18,0.27-1.7,2.15-2.67,3.24c0.06,0.08,0.14,0.14,0.19,0.22c2.75-0.48,5.59-1.87,7.81-2.77
				c3.48-1.41,6.72-2.4,10.51-2.45c2.63-0.03,4.04,2.44,3.79,4.61c3.54,0.13,7.08,0.15,10.641,0.01c1.479-0.06,2.18,1.37,2,2.62
				c-0.13,0.82-0.32,1.53-0.59,2.19c0.96-0.12,1.93-0.2,2.899-0.23c1.15-0.02,1.271,1.59,0.26,1.92
				c-1.989,0.67-4.029,1.15-6.05,1.73c-1.17,0.34-2.37-1.02-1.75-2.1c-1.479,0.51-2.95,0.77-4.45,0.85c2.24,0.68,4.41,1.51,6.5,2.54
				C289.458,173.065,294.428,189.476,294.058,203.565z"/>
			<g>
				<path fill="#FFB890" d="M212.388,227.096c-0.2,0-0.39-0.01-0.58-0.03c-12.29-0.68-14.81-14.96-11.47-21.64
					c0.47-0.97,1.08-1.79,1.8-2.37c0.29-0.24,0.58-0.44,0.87-0.61c2.62-1.58,4.84-0.5,6.42,0.98c0.46,0.44,0.87,0.91,1.22,1.37
					c0.58,0.75,0.99,1.45,1.18,1.82c0.1,0.17,0.15,0.27,0.15,0.27L212.388,227.096z"/>
				<path fill="#F29B62" d="M206.683,214.295c0.034-0.262,0.084-0.522,0.146-0.78c0.396-1.648,1.357-3.282,2.297-4.683
					c0.225-0.334-0.208-0.752-0.542-0.551c-3.048,1.836-5.708,5.773-4.432,9.46c0.978,2.826,5.614,4.692,7.109,1.282
					C212.439,216.339,209.613,212.477,206.683,214.295z"/>
			</g>
			<g>
				<path fill="#FFB890" d="M285.788,228.456c-0.03,0.01-0.05,0.01-0.08,0.01c-0.17,0.01-0.34,0.02-0.521,0.02l0.011-0.69
					l0.399-19.51c0,0,0.3-0.62,0.851-1.43c0.47-0.69,1.119-1.52,1.93-2.23c1.74-1.54,4.2-2.49,7.06-0.17
					c0.521,0.42,0.98,0.96,1.37,1.59C300.758,212.306,298.567,227.746,285.788,228.456z"/>
				<path fill="#F29B62" d="M290.889,215.694c-0.034-0.261-0.085-0.522-0.146-0.78c-0.396-1.648-1.357-3.282-2.298-4.683
					c-0.225-0.334,0.209-0.752,0.542-0.552c3.048,1.836,5.709,5.773,4.432,9.461c-0.978,2.826-5.614,4.692-7.109,1.281
					C285.132,217.738,287.958,213.876,290.889,215.694z"/>
			</g>
			<path fill="#FFC9AE" d="M288.527,194.186c0,3.65-0.039,7.13-0.149,10.44c-0.021,0.74-0.05,1.47-0.08,2.19
				c-0.12,3.14-0.31,6.12-0.58,8.95c-0.19,1.98-0.41,3.89-0.69,5.72c-0.35,2.43-0.779,4.73-1.31,6.9c0,0.02,0,0.05-0.01,0.08
				c-1.53,6.29-3.83,11.44-7.22,15.44c-5.931,7.01-15.2,10.52-29.57,10.52c-14.58,0-23.92-3.61-29.84-10.84
				c-2.82-3.44-4.86-7.71-6.33-12.79c-0.34-1.2-0.66-2.44-0.94-3.73c-0.49-2.22-0.89-4.57-1.21-7.05c-0.24-1.77-0.43-3.62-0.59-5.53
				c-0.26-3.07-0.44-6.32-0.55-9.75c-0.01-0.43-0.03-0.87-0.03-1.31c-0.09-2.95-0.12-6.03-0.12-9.24
				C209.308,157.465,288.527,157.465,288.527,194.186z"/>
			<path fill="#FFB890" d="M279.647,242.446c-0.37,0.5-0.76,0.99-1.159,1.46c-5.931,7.01-15.2,10.52-29.57,10.52
				c-14.58,0-23.92-3.61-29.84-10.84c-2.82-3.44-4.86-7.71-6.33-12.79c-0.34-1.2-0.66-2.44-0.94-3.73
				c-0.49-2.22-0.89-4.57-1.21-7.05c-0.24-1.77-0.43-3.62-0.59-5.53c-0.26-3.07-0.44-6.32-0.55-9.75c-0.01-0.43-0.03-0.87-0.03-1.31
				c-0.09-2.95-0.12-6.03-0.12-9.24c0-7.56,3.36-13.57,8.7-18.01c-2.69,3.71-4.26,8.15-4.26,13.31c0,3.21,0.03,6.29,0.12,9.24
				c0,0.44,0.02,0.88,0.03,1.31c0.11,3.43,0.29,6.68,0.55,9.75c0.16,1.91,0.35,3.76,0.59,5.53c0.32,2.48,0.72,4.83,1.21,7.05
				c0.28,1.29,0.6,2.53,0.94,3.73c1.47,5.08,3.51,9.35,6.33,12.79c5.92,7.23,15.26,10.84,29.84,10.84
				C265.308,249.726,273.738,247.295,279.647,242.446z"/>
			<g>
				<path fill="#B64401" d="M229.624,221.71c-4.523,0-9.103-3.561-9.103-10.365c0-0.829,0.671-1.5,1.5-1.5s1.5,0.671,1.5,1.5
					c0,5.061,3.164,7.365,6.103,7.365c2.939,0,6.103-2.305,6.103-7.365c0-0.829,0.671-1.5,1.5-1.5s1.5,0.671,1.5,1.5
					C238.727,218.15,234.147,221.71,229.624,221.71z"/>
			</g>
			<g>
				<path fill="#B64401" d="M269.761,221.71c-4.522,0-9.103-3.561-9.103-10.365c0-0.829,0.672-1.5,1.5-1.5s1.5,0.671,1.5,1.5
					c0,5.061,3.164,7.365,6.103,7.365c2.94,0,6.104-2.305,6.104-7.365c0-0.829,0.672-1.5,1.5-1.5s1.5,0.671,1.5,1.5
					C278.864,218.15,274.285,221.71,269.761,221.71z"/>
			</g>
			<g>
				<path fill="#B64401" d="M233.612,191.688c-0.497,0-0.984-0.247-1.269-0.698c-1.001-1.583-1.967-2.454-2.719-2.454
					c-0.753,0-1.718,0.872-2.719,2.454c-0.442,0.7-1.368,0.91-2.069,0.466c-0.7-0.442-0.909-1.369-0.466-2.069
					c1.638-2.591,3.357-3.851,5.254-3.851c1.897,0,3.616,1.259,5.255,3.851c0.443,0.7,0.234,1.626-0.466,2.069
					C234.164,191.614,233.886,191.688,233.612,191.688z"/>
			</g>
			<g>
				<path fill="#B64401" d="M273.749,191.688c-0.497,0-0.983-0.247-1.269-0.698c-1.001-1.583-1.967-2.454-2.72-2.454
					c-0.752,0-1.718,0.872-2.719,2.454c-0.443,0.7-1.369,0.909-2.069,0.466c-0.7-0.443-0.909-1.369-0.466-2.069
					c1.64-2.591,3.357-3.851,5.254-3.851c1.897,0,3.616,1.26,5.255,3.851c0.443,0.7,0.234,1.626-0.465,2.069
					C274.301,191.614,274.023,191.688,273.749,191.688z"/>
			</g>
			<path fill="#B64401" d="M250.627,240.997h-0.47c-1.304,0-2.361-1.057-2.361-2.361v-4.365c0-1.304,1.057-2.361,2.361-2.361h0.47
				c1.304,0,2.361,1.057,2.361,2.361v4.365C252.988,239.939,251.932,240.997,250.627,240.997z"/>
		</g>
		<g opacity="0.68">
			<path fill="#F29D86" d="M231.038,234.396c0,5.25-4.25,9.51-9.5,9.51c-0.85,0-1.67-0.11-2.46-0.32
				c-2.82-3.44-4.86-7.71-6.33-12.79c1.41-3.46,4.81-5.9,8.79-5.9C226.788,224.896,231.038,229.156,231.038,234.396z"/>
			<path fill="#F29D86" d="M285.788,228.456c-0.03,0.01-0.05,0.01-0.08,0.01c-1.53,6.29-3.83,11.44-7.22,15.44h-0.12
				c-5.25,0-9.511-4.26-9.511-9.51c0-5.24,4.261-9.5,9.511-9.5c2.68,0,5.109,1.11,6.83,2.9c0.189,0.19,0.359,0.38,0.52,0.59
				C285.748,228.406,285.768,228.426,285.788,228.456z"/>
		</g>
	</g>
</g>
</svg>
