<?xml version="1.0" encoding="utf-8"?>
<!-- Generator: Adobe Illustrator 16.0.0, SVG Export Plug-In . SVG Version: 6.00 Build 0)  -->
<!DOCTYPE svg PUBLIC "-//W3C//DTD SVG 1.1//EN" "http://www.w3.org/Graphics/SVG/1.1/DTD/svg11.dtd">
<svg version="1.1" id="Layer_1" xmlns="http://www.w3.org/2000/svg" xmlns:xlink="http://www.w3.org/1999/xlink" x="0px" y="0px"
	 width="101.917px" height="81px" viewBox="0 0 101.917 81" enable-background="new 0 0 101.917 81" xml:space="preserve">
<path fill="#DEE8F6" d="M95.818,8.75c-0.328-0.557-0.699-1.114-1.135-1.67c-0.16-0.214-0.349-0.428-0.524-0.643V8.75H95.818z"/>
<path fill="#DEE8F6" d="M94.159,71.542c2.227-1.21,4.168-2.421,5.685-3.631c12.99-10.222-2.581-20.245-5.16-30.173
	c-2.621-9.658,6.789-19.405,1.135-28.988h-1.659V71.542z"/>
<path fill="#DEE8F6" d="M93.772,71.75h0.387v-0.208C94.032,71.611,93.901,71.681,93.772,71.75z"/>
<path fill="#DEE8F6" d="M84.73,2.677V8.75h9.429V6.438c-1.606-1.953-3.859-3.9-6.53-5.847c-1.214,0.576-2.371,1.153-3.465,1.729
	C84.35,2.439,84.545,2.558,84.73,2.677z"/>
<path fill="#DEE8F6" d="M84.73,8.75v60.621c0.785,0.794,1.665,1.586,2.629,2.379h6.413c0.129-0.069,0.26-0.139,0.387-0.208V8.75
	H84.73z"/>
<path fill="none" d="M77.679,6.381c1.517-1.21,3.458-2.421,5.685-3.631V1.816C82.396,1.211,81.411,0.606,80.396,0H1.667
	c0,2.916,0,5.833,0,8.75h73.509C75.859,7.961,76.674,7.172,77.679,6.381z"/>
<path fill="#DEE8F6" d="M84.164,2.32c-0.264-0.168-0.531-0.336-0.8-0.504V2.75C83.627,2.606,83.892,2.463,84.164,2.32z"/>
<path fill="#DEE8F6" d="M83.364,2.75c-2.227,1.21-4.168,2.421-5.685,3.631c-1.005,0.791-1.82,1.581-2.503,2.369h8.188V2.75z"/>
<path fill="#DEE8F6" d="M75.176,8.75c-8.137,9.403,5.283,18.644,7.663,27.804c2.773,10.219-7.934,20.539,0,30.658
	c0.16,0.214,0.349,0.429,0.524,0.643V8.75H75.176z"/>
<path fill="#DEE8F6" d="M84.73,8.75V2.677c-0.185-0.119-0.38-0.238-0.566-0.356c-0.271,0.143-0.536,0.286-0.8,0.429v6H84.73z"/>
<path fill="#DEE8F6" d="M84.73,8.75h-1.366v59.104c0.416,0.506,0.866,1.012,1.366,1.517V8.75z"/>
</svg>
